<?xml version="1.0" encoding="utf-8"?>
<!-- Generator: Adobe Illustrator 15.1.0, SVG Export Plug-In . SVG Version: 6.00 Build 0)  -->
<!DOCTYPE svg PUBLIC "-//W3C//DTD SVG 1.1//EN" "http://www.w3.org/Graphics/SVG/1.1/DTD/svg11.dtd">
<svg version="1.1" id="Layer_1" xmlns="http://www.w3.org/2000/svg" xmlns:xlink="http://www.w3.org/1999/xlink" x="0px" y="0px"
	 width="300px" height="300px" viewBox="0 0 300 300" enable-background="new 0 0 300 300" xml:space="preserve">
<rect x="10.5" y="90.5" fill="#FFFFFF" stroke="#000000" stroke-miterlimit="10" width="281" height="107"/>
<g>
	<g>
		<path fill-rule="evenodd" clip-rule="evenodd" fill="#A1CDDB" d="M185.592,103.891c4.062-1.346,13.736-1.346,17.797,0
			C197.457,103.891,191.524,103.891,185.592,103.891z"/>
		<path fill-rule="evenodd" clip-rule="evenodd" fill="#A1CDDB" d="M127.35,137.057c0.54,0,1.079,0,1.618,0
			c4.314,0,8.628,0,12.942,0c-0.25,1.098-2.025,0.671-3.235,0.809c-2.697,0-5.393,0-8.089,0
			C129.305,137.798,127.5,138.255,127.35,137.057z"/>
		<path fill-rule="evenodd" clip-rule="evenodd" fill="#459FB9" d="M65.062,155.662c-7.555-0.535-17.251,1.072-23.459-0.809
			C49.158,155.388,58.854,153.78,65.062,155.662z"/>
		<path fill-rule="evenodd" clip-rule="evenodd" fill="#FAFAF9" d="M4.393,172.649c0,1.079,0,2.157,0,3.235
			c-2.341,2.104-1.437-3.941-3.235-4.854c0.627-0.181,1.595-0.021,1.618-0.809C4.111,170.234,3.228,172.467,4.393,172.649z"/>
		<path fill-rule="evenodd" clip-rule="evenodd" fill="#459FB9" d="M35.132,171.031c10.521-1.348,26.691-1.348,37.211,0
			C59.939,171.031,47.536,171.031,35.132,171.031z"/>
		<path fill-rule="evenodd" clip-rule="evenodd" fill="#FAFAF9" d="M4.393,182.356c0,1.079,0,2.157,0,3.236
			c-1.607,1.347-1.028-0.073-3.235,0c-1.171-3.06,2.223-1.553,1.618-4.045C3.586,181.545,3.738,182.203,4.393,182.356z"/>
		<path fill-rule="evenodd" clip-rule="evenodd" fill="#A1CDDB" d="M28.661,186.401c-5.135,1.347-15.897,1.347-21.032,0
			c1.618,0,3.236,0,4.854,0c4.854,0,9.707,0,14.561,0C27.582,186.401,28.121,186.401,28.661,186.401z"/>
		<path fill-rule="evenodd" clip-rule="evenodd" fill="#FAFAF9" d="M295.606,120.069c0-6.202,0-12.404,0-18.605
			c4.259-1.119,3.177,3.762,3.236,4.854c0.262,4.8-3.649,5.617,0,7.28C295.703,115.103,298.473,122.083,295.606,120.069z"/>
		<path fill-rule="evenodd" clip-rule="evenodd" fill="#A1CDDB" d="M255.16,105.508c2.718-4.833,13.709-1.391,20.224-2.427
			c-0.535,27.778,1.072,57.698-0.81,84.128c-6.471,0-12.942,0-19.414,0c0-0.27,0-0.539,0-0.809c1.618,0,3.235,0,4.854,0
			c4.314,0,8.629,0,12.943,0c1.376,0.297,1.525-0.631,1.617-1.618c0-22.11,0-44.221,0-66.332c-0.956-4.436,1.99-12.776-1.617-14.561
			c-4.314,0-8.629,0-12.943,0C257.216,103.25,256.599,104.79,255.16,105.508z"/>
		<path fill-rule="evenodd" clip-rule="evenodd" fill="#A1CDDB" d="M39.985,104.7c4.918-3.179,18.826-1.658,25.077-0.809
			c-1.618,0-3.236,0-4.854,0c-5.124,0-10.247,0-15.37,0C42.845,103.784,40.941,103.768,39.985,104.7z"/>
		<path fill-rule="evenodd" clip-rule="evenodd" fill="#A1CDDB" d="M127.35,187.21c-7.011,0-14.021,0-21.032,0
			c0-28.042,0-56.085,0-84.128c14.292,0.538,30.738-1.077,43.682,0.809c-1.618,0-3.235,0-4.854,0c-9.168,0-18.335,0-27.503,0
			c-3.236,0-6.471,0-9.707,0c-1.887,25.617-0.27,54.736-0.809,81.702c5.131,1.879,13.746,0.275,20.223,0.809
			C127.35,186.671,127.35,186.94,127.35,187.21z"/>
		<path fill-rule="evenodd" clip-rule="evenodd" fill="#A1CDDB" d="M101.464,186.401c-5.452,0.856-18.528,2.358-22.65-0.809
			c0.956,0.931,2.859,0.915,4.854,0.809c2.697,0,5.393,0,8.089,0C94.993,186.401,98.229,186.401,101.464,186.401z"/>
		<path fill-rule="evenodd" clip-rule="evenodd" fill="#FAFAF9" d="M127.35,186.401c-6.477-0.533-15.092,1.07-20.223-0.809
			c0.539-26.966-1.078-56.085,0.809-81.702c3.236,0,6.471,0,9.707,0c7.288,1.347,20.216,1.347,27.503,0c1.618,0,3.236,0,4.854,0
			c22.879-0.763,28.75,38.185,7.281,43.682c11.56,8.394,15.167,24.74,21.841,38.02c-0.022,0.786-0.99,0.627-1.617,0.809
			c-3.258-1.346-12.113-1.346-15.37,0c-1.888,0-3.775,0-5.663,0c-6.022-11.505-8.842-26.212-19.414-33.166c-2.966,0-5.932,0-8.898,0
			C126.274,162.676,127.887,175.613,127.35,186.401z M138.675,119.26c-2.076-1.495-9.19-1.132-11.325,0c0,5.932,0,11.864,0,17.796
			c0.15,1.198,1.955,0.742,3.236,0.809c0.872,1.339,7.217,1.339,8.089,0c1.21-0.138,2.985,0.289,3.235-0.809
			c2.814-0.961,6.069-1.481,6.472-4.854c2.034-1.67,2.034-6.419,0-8.089c0-0.539,0-1.079,0-1.618
			C146.068,120.495,143.528,118.722,138.675,119.26z"/>
		<path fill-rule="evenodd" clip-rule="evenodd" fill="#A1CDDB" d="M177.504,186.401c0.627-0.182,1.595-0.022,1.617-0.809
			c-1.041,3.021-17.625,1.772-22.65,0.809c1.888,0,3.775,0,5.663,0C167.257,186.401,172.38,186.401,177.504,186.401z"/>
		<path fill-rule="evenodd" clip-rule="evenodd" fill="#FAFAF9" d="M185.592,103.891c5.933,0,11.865,0,17.797,0
			c9.804,9.071,17.65,20.1,26.695,29.93c8.93-8.866,16.521-19.071,25.076-28.312c1.438-0.718,2.056-2.258,4.854-1.618
			c2.456,1.344,10.487,1.344,12.943,0c3.607,1.785,0.661,10.125,1.617,14.561c-1.348,20.225-1.348,46.107,0,66.332
			c-0.092,0.987-0.241,1.915-1.617,1.618c-2.456-1.344-10.487-1.344-12.943,0c-1.618,0-3.235,0-4.854,0
			c-0.688,0.148-0.763-0.315-0.809-0.809c1.886-15.102,0.271-33.704,0.809-50.154c-0.72-0.498-1.446-0.978-1.618,0
			c-0.285,1.062-1.424,1.272-1.617,2.427c-7.855,7.515-12.608,18.13-22.65,23.458c-7.8-8.379-14.926-17.431-22.649-25.885
			c-1.887,15.371-0.271,34.244-0.81,50.962c-6.741,0-13.481,0-20.224,0C185.592,158.897,185.592,131.395,185.592,103.891z"/>
		<path fill-rule="evenodd" clip-rule="evenodd" fill="#A1CDDB" d="M253.542,135.439c0.172-0.978,0.898-0.498,1.618,0
			c-0.538,16.45,1.077,35.052-0.809,50.154C253.813,169.143,255.429,150.54,253.542,135.439z"/>
		<path fill-rule="evenodd" clip-rule="evenodd" fill="#29758A" d="M251.925,137.866c0.193-1.155,1.332-1.365,1.617-2.427
			c1.887,15.101,0.271,33.704,0.81,50.154c0.046,0.493,0.121,0.957,0.809,0.809c0,0.27,0,0.539,0,0.809
			C250.337,174.507,256.748,150.568,251.925,137.866z"/>
		<path fill-rule="evenodd" clip-rule="evenodd" fill="#A1CDDB" d="M206.625,135.439c0,17.256,0,34.514,0,51.771
			c-7.011,0-14.021,0-21.033,0c0-0.27,0-0.539,0-0.809c6.742,0,13.482,0,20.224,0C206.354,169.683,204.738,150.81,206.625,135.439z"
			/>
		<path fill-rule="evenodd" clip-rule="evenodd" fill="#FAFAF9" d="M282.664,107.936c0.561-3.675,4.795-5.487,8.089-4.045
			c0.148,0.688-0.315,0.763-0.809,0.809c-1.876-0.258-3.106,0.13-4.045,0.809c-1.165,0.453-1.974,1.262-2.427,2.427
			C283.203,107.936,282.934,107.936,282.664,107.936z"/>
		<path fill-rule="evenodd" clip-rule="evenodd" fill="#29758A" d="M283.473,107.936c0.453-1.165,1.262-1.974,2.427-2.427
			c0,0.27,0,0.54,0,0.809c-1.836,0.86-0.308,5.085-0.809,7.28C282.776,113.485,283.611,110.224,283.473,107.936z"/>
		<path fill-rule="evenodd" clip-rule="evenodd" fill="#A1CDDB" d="M283.473,107.936c0.139,2.288-0.696,5.549,1.618,5.662
			c0.501-2.195-1.027-6.42,0.809-7.28c1.176,0.442,4.181-0.945,4.045,0.809c-1.201,0.353,0.319,1.035,0,2.427
			c-1.876,0.258-3.106-0.13-4.045-0.809c-0.069,1.148-0.134,2.291,0.809,2.427c0.275,1.624-0.165,2.531-1.617,2.427
			c2.38,4.098,8.059,0.121,8.897-2.427c-0.721-2.514-0.832-5.639-4.044-5.663c0-0.27,0-0.539,0-0.809
			c0.493-0.046,0.957-0.121,0.809-0.809c14.812,8.072-12.47,20.888-8.089,4.045C282.934,107.936,283.203,107.936,283.473,107.936z"
			/>
		<path fill-rule="evenodd" clip-rule="evenodd" fill="#FAFAF9" d="M289.944,107.126c2.76,1.34-2.139,5.319,1.617,5.663
			c-1.607,3.099-3.826-4.136-4.854-1.618c-0.942-0.136-0.878-1.279-0.809-2.427c0.938,0.679,2.169,1.067,4.045,0.809
			C290.264,108.162,288.743,107.479,289.944,107.126z"/>
		<path fill-rule="evenodd" clip-rule="evenodd" fill="#057FA1" d="M289.944,104.7c0,0.27,0,0.539,0,0.809
			c3.212,0.024,3.323,3.148,4.044,5.663c-0.839,2.548-6.518,6.525-8.897,2.427c1.452,0.104,1.893-0.803,1.617-2.427
			c1.027-2.518,3.246,4.717,4.854,1.618c-3.756-0.344,1.143-4.323-1.617-5.663c0.136-1.754-2.869-0.367-4.045-0.809
			c0-0.27,0-0.539,0-0.809C286.838,104.83,288.068,104.441,289.944,104.7z"/>
		<path fill-rule="evenodd" clip-rule="evenodd" fill="#459FB9" d="M127.35,137.057c0-5.932,0-11.864,0-17.796
			c2.135-1.132,9.25-1.495,11.325,0c-3.236,0-6.472,0-9.707,0c-1.319,4.234-1.319,13.563,0,17.796
			C128.428,137.057,127.889,137.057,127.35,137.057z"/>
		<path fill-rule="evenodd" clip-rule="evenodd" fill="#057FA1" d="M148.382,132.203c-0.403,3.372-3.657,3.893-6.472,4.854
			c-4.314,0-8.628,0-12.942,0c-1.319-4.233-1.319-13.562,0-17.796c3.235,0,6.471,0,9.707,0c4.853-0.539,7.394,1.235,9.707,3.236
			c0,0.539,0,1.079,0,1.618C148.382,126.81,148.382,129.507,148.382,132.203z"/>
		<path fill-rule="evenodd" clip-rule="evenodd" fill="#FAFAF9" d="M39.985,104.7c0.956-0.932,2.859-0.916,4.854-0.809
			c3.257,1.345,12.113,1.345,15.37,0c1.618,0,3.235,0,4.854,0c12.344,27.293,24.711,54.564,36.401,82.511c-3.235,0-6.471,0-9.707,0
			c-0.872-1.339-7.217-1.339-8.089,0c-1.994,0.106-3.897,0.122-4.854-0.809c-2.001-5.01-3.786-10.235-6.471-14.562
			c-10.52-1.348-26.69-1.348-37.211,0c-2.216,5.064-3.152,11.409-6.471,15.37c-0.54,0-1.079,0-1.618,0
			c-2.989-1.345-11.571-1.345-14.561,0c-1.618,0-3.236,0-4.854,0C17.586,158.34,29.592,132.325,39.985,104.7z M65.062,155.662
			c-1.313-10.016-8.025-21.634-12.134-31.548c-3.678,10.344-7.883,20.16-11.325,30.74C47.811,156.734,57.508,155.127,65.062,155.662
			z"/>
		<path fill-rule="evenodd" clip-rule="evenodd" fill="#057FA1" d="M295.606,101.464c0,6.202,0,12.403,0,18.605
			c0,58.512,0,117.024,0,175.537c-97.07,0-194.144,0-291.214,0c0-36.671,0-73.343,0-110.014c0-1.079,0-2.157,0-3.236
			c0-2.157,0-4.314,0-6.472c0-1.078,0-2.156,0-3.235c0-56.086,0-112.171,0-168.257c97.07,0,194.144,0,291.214,0
			C295.606,36.75,295.606,69.107,295.606,101.464z M282.664,107.936c-4.381,16.843,22.9,4.027,8.089-4.045
			C287.459,102.448,283.225,104.26,282.664,107.936z M203.389,103.891c-4.061-1.346-13.735-1.346-17.797,0
			c-0.627,0.181-1.595,0.022-1.617,0.809c2.399,22.048-0.805,60.486,1.617,82.51c7.012,0,14.022,0,21.033,0
			c0-17.257,0-34.515,0-51.771c7.724,8.454,14.85,17.506,22.649,25.885c10.042-5.328,14.795-15.944,22.65-23.458
			c4.823,12.703-1.588,36.641,3.235,49.344c6.472,0,12.943,0,19.414,0c4.149-1.136,0.307-12.515,1.618-18.604
			c0-7.281,0-14.562,0-21.842c-0.538-14.292,1.077-30.737-0.809-43.682c-6.515,1.036-17.506-2.406-20.224,2.427
			c-8.555,9.242-16.146,19.447-25.076,28.312C221.039,123.991,213.192,112.962,203.389,103.891z M65.062,103.891
			c-6.251-0.849-20.159-2.37-25.077,0.809c-10.394,27.625-22.399,53.64-32.357,81.702c5.135,1.347,15.897,1.347,21.032,0
			c3.319-3.961,4.255-10.306,6.471-15.37c12.404,0,24.807,0,37.211,0c2.685,4.326,4.47,9.552,6.471,14.562
			c4.122,3.167,17.198,1.665,22.65,0.809C89.773,158.455,77.407,131.184,65.062,103.891z M150,103.891
			c-12.944-1.886-29.39-0.271-43.682-0.809c0,28.043,0,56.086,0,84.128c7.011,0,14.021,0,21.032,0
			c2.062-6.829,0.146-23.2,0.809-33.975c2.966,0,5.932,0,8.898,0c10.572,6.954,13.392,21.661,19.414,33.166
			c5.025,0.964,21.609,2.212,22.65-0.809c-6.674-13.28-10.281-29.626-21.841-38.02C178.75,142.076,172.879,103.128,150,103.891z"/>
		<path fill-rule="evenodd" clip-rule="evenodd" fill="#29758A" d="M148.382,124.114c2.034,1.67,2.034,6.419,0,8.089
			C148.382,129.507,148.382,126.81,148.382,124.114z"/>
		<path fill-rule="evenodd" clip-rule="evenodd" fill="#057FA1" d="M41.604,154.854c3.442-10.58,7.647-20.396,11.325-30.74
			c4.109,9.915,10.821,21.533,12.134,31.548C58.854,153.78,49.158,155.388,41.604,154.854z"/>
		<path fill-rule="evenodd" clip-rule="evenodd" fill="#459FB9" d="M128.159,153.235c-0.663,10.774,1.253,27.146-0.809,33.975
			c0-0.27,0-0.539,0-0.809C127.887,175.613,126.274,162.676,128.159,153.235z"/>
		<path fill-rule="evenodd" clip-rule="evenodd" fill="#29758A" d="M274.574,187.21c1.882-26.431,0.274-56.351,0.81-84.128
			c1.886,12.945,0.271,29.39,0.809,43.682c0,7.28,0,14.561,0,21.842C274.881,174.695,278.724,186.074,274.574,187.21z"/>
		<path fill-rule="evenodd" clip-rule="evenodd" fill="#459FB9" d="M185.592,187.21c-2.422-22.024,0.782-60.462-1.617-82.51
			c0.022-0.787,0.99-0.628,1.617-0.809c0,27.504,0,55.007,0,82.511C185.592,186.671,185.592,186.94,185.592,187.21z"/>
	</g>
</g>
</svg>
