<?xml version="1.0" encoding="utf-8"?>
<!-- Generator: Adobe Illustrator 15.1.0, SVG Export Plug-In . SVG Version: 6.00 Build 0)  -->
<!DOCTYPE svg PUBLIC "-//W3C//DTD SVG 1.1//EN" "http://www.w3.org/Graphics/SVG/1.1/DTD/svg11.dtd">
<svg version="1.1" id="Layer_1" xmlns="http://www.w3.org/2000/svg" xmlns:xlink="http://www.w3.org/1999/xlink" x="0px" y="0px"
	 width="300px" height="300px" viewBox="0 0 300 300" enable-background="new 0 0 300 300" xml:space="preserve">
<rect fill="#659AD2" width="298.431" height="300"/>
<g>
	<g>
		<path fill="#659AD2" d="M298.431,54c0,55.857,0,111.716,0,167.572c-99.171,0-198.335,0-297.506,0c0-55.856,0-111.716,0-167.572
			C100.094,54,199.26,54,298.431,54z M132.92,78.233c-35.973,2.619-61.005,32.997-58.264,68.576
			c2.675,34.729,33.54,59.707,67.545,57.232c23.859-1.736,38.241-13.84,50.013-31.452c-9.32-4.944-17.982-10.548-27.326-15.468
			c-15.68,27.903-63.177,14.963-58.78-20.625c2.036-16.476,17.368-29.125,36.093-26.812c10.774,1.332,16.871,7.757,23.203,15.468
			c8.687-5.579,18.379-10.151,26.811-15.984C179.605,92.105,163.48,76.009,132.92,78.233z M186.543,137.528
			c-2.233,0-4.468,0-6.703,0c0,2.406,0,4.812,0,7.219c2.407,0,4.812,0,7.22,0c0,2.234,0,4.468,0,6.703c2.233,0,4.468,0,6.702,0
			c0-2.234,0-4.469,0-6.703c2.234,0,4.469,0,6.704,0c0-2.407,0-4.813,0-7.219c-2.076-0.331-5.483,0.671-6.704-0.515
			c0-2.062,0-4.125,0-6.188c-2.234,0-4.469,0-6.702,0C186.729,132.901,187.729,136.309,186.543,137.528z M212.839,137.528
			c-2.233,0-4.469,0-6.702,0c0,2.406,0,4.812,0,7.219c2.406,0,4.812,0,7.219,0c0,2.234,0,4.468,0,6.703c2.233,0,4.469,0,6.702,0
			c0-2.234,0-4.469,0-6.703c2.234,0,4.47,0,6.703,0c0-2.407,0-4.813,0-7.219c-2.075-0.331-5.482,0.671-6.703-0.515
			c0-2.062,0-4.125,0-6.188c-2.233,0-4.469,0-6.702,0C213.023,132.901,214.025,136.309,212.839,137.528z"/>
		<path fill="#FFFFFF" d="M298.431,54c0.858,54.653,0.858,112.919,0,167.572C298.431,165.716,298.431,109.856,298.431,54z"/>
		<path fill="#FFFFFF" d="M187.06,130.825c2.233,0,4.468,0,6.702,0c0,2.062,0,4.125,0,6.188c1.221,1.186,4.628,0.185,6.704,0.515
			c0,2.406,0,4.812,0,7.219c-2.235,0-4.47,0-6.704,0c0,2.234,0,4.468,0,6.703c-2.234,0-4.469,0-6.702,0c0-2.234,0-4.469,0-6.703
			c-2.407,0-4.812,0-7.22,0c0-2.407,0-4.813,0-7.219c2.235,0,4.47,0,6.703,0C187.729,136.309,186.729,132.901,187.06,130.825z"/>
		<path fill="#FFFFFF" d="M213.355,130.825c2.233,0,4.469,0,6.702,0c0,2.062,0,4.125,0,6.188c1.221,1.186,4.628,0.185,6.703,0.515
			c0,2.406,0,4.812,0,7.219c-2.233,0-4.469,0-6.703,0c0,2.234,0,4.468,0,6.703c-2.233,0-4.469,0-6.702,0c0-2.234,0-4.469,0-6.703
			c-2.406,0-4.812,0-7.219,0c0-2.407,0-4.813,0-7.219c2.233,0,4.469,0,6.702,0C214.025,136.309,213.023,132.901,213.355,130.825z"/>
		<path fill="#FFFFFF" d="M192.215,109.169c-8.432,5.833-18.125,10.406-26.811,15.984c-6.332-7.711-12.429-14.137-23.203-15.468
			c-18.726-2.313-34.058,10.336-36.093,26.812c-4.397,35.589,43.1,48.527,58.78,20.624c9.344,4.921,18.006,10.524,27.326,15.469
			c-11.772,17.611-26.154,29.715-50.013,31.452c-34.005,2.475-64.87-22.504-67.545-57.232c-2.741-35.58,22.291-65.958,58.264-68.577
			C163.48,76.009,179.605,92.105,192.215,109.169z"/>
	</g>
</g>
</svg>
