<?xml version="1.0" encoding="utf-8"?>
<!-- Generator: Adobe Illustrator 15.1.0, SVG Export Plug-In . SVG Version: 6.00 Build 0)  -->
<!DOCTYPE svg PUBLIC "-//W3C//DTD SVG 1.1//EN" "http://www.w3.org/Graphics/SVG/1.1/DTD/svg11.dtd">
<svg version="1.1" id="Layer_1" xmlns="http://www.w3.org/2000/svg" xmlns:xlink="http://www.w3.org/1999/xlink" x="0px" y="0px"
	 width="300px" height="300px" viewBox="0 0 300 300" enable-background="new 0 0 300 300" xml:space="preserve">
<rect fill="#3598D4" width="300" height="300"/>
<g>
	<g>
		<path d="M122.857,179.205c-4.179-9.14-12.217-17.133-24.634-18.3c-8.77-0.824-16.646,1-24.633,2.111
			c-2.732-5.424-6.782-11.202-14.312-11.495c-3.396-0.133-6.769,0.895-10.557,1.172c5.228-8.372-2.532-16.477-9.854-17.595
			c-0.944,0.151-2.495-0.305-3.05,0.234c-0.34-0.769,2.044-2.777,3.05-3.753c12.022-9.719,24.56-18.922,45.749-19.473
			c-0.327-3.348-3.738-3.613-6.1-4.927c0.535-1.314,1.665-0.598,3.285-0.704c3.301,2.554,5.892,5.594,10.088,7.273
			c3.993,1.598,8.271,3.141,13.138,3.988c5.462,2.35,13.921,3.14,20.411,5.631c3.438,1.32,6.951,4.506,9.384,0.234
			c-0.646-2.371-2.297-4.647-3.519-7.038c-1.126-2.202-2.85-5.13-2.815-7.507c0.026-1.826,1.184-4.411,1.877-6.335
			c0.703-1.953,1.827-3.792,2.581-5.63c5.502,5.133,12.421,8.849,16.188,15.719c1.869-1.885,2.943-4.564,4.457-6.804
			c3.817-3.222,8.003-6.074,11.262-9.853c2.31,1.788,2.944,5.634,3.988,8.445c0.421,1.131,1.395,2.3,1.408,3.519
			c0.053,4.621-5.607,10.158-6.334,14.546c0.432,1.68,1.636,2.587,3.049,3.284c8.383-4.949,20.736-7.323,31.438-10.323
			c3.639-1.019,7.676-1.842,10.558-3.284c4.207-2.106,6.26-9.114,11.495-5.865c-2.832,0.686-5.787,1.25-6.1,4.458
			c21.272,0.556,37.32,12.189,47.86,23.461c-1.486,0-2.972,0-4.457,0c-7.297,1.133-12.734,10.421-8.446,17.361
			c-4.083-0.173-7.688-1.654-11.262-1.173c-6.617,0.891-10.017,6.457-12.433,11.495c-6.172-0.885-12.312-1.596-18.301-2.11
			c-2.109-0.182-3.963-0.66-6.101-0.47c-13.043,1.163-20.195,9.876-25.806,18.534c2.652,3.643,6.546,6.905,9.619,10.558
			c0.259,0.307,1.449,0.663,0.704,1.173c-1.816-1.586-5.309-0.171-5.865,0.703c-1.272-3.105-1.911-6.848-4.224-8.914
			c-5.744,0.087-9.818,5.524-15.484,5.63c-0.919,0.019-1.716-0.563-2.58-0.469c-4.584,0.502-6.343,5.171-8.211,8.915
			c-3.438-3.689-4.335-8.118-10.323-8.211c-0.853-0.014-1.827,0.366-2.815,0.233c-4.646-0.624-7.76-5.729-13.138-5.161
			c-2.516,1.785-2.979,5.624-4.458,8.446c-0.417,1.145-0.932-1.32-2.111-0.938c-1.345,0.297-2.911,0.373-3.988,0.938
			C115.103,187.09,119.925,183.468,122.857,179.205z"/>
	</g>
</g>
</svg>
