<?xml version="1.0" encoding="utf-8"?>
<!-- Generator: Adobe Illustrator 15.1.0, SVG Export Plug-In . SVG Version: 6.00 Build 0)  -->
<!DOCTYPE svg PUBLIC "-//W3C//DTD SVG 1.1//EN" "http://www.w3.org/Graphics/SVG/1.1/DTD/svg11.dtd">
<svg version="1.1" id="Layer_1" xmlns="http://www.w3.org/2000/svg" xmlns:xlink="http://www.w3.org/1999/xlink" x="0px" y="0px"
	 width="300px" height="300px" viewBox="0 0 300 300" enable-background="new 0 0 300 300" xml:space="preserve">
<rect y="-1" fill-rule="evenodd" clip-rule="evenodd" fill="#FFFFFF" width="299.5" height="300"/>
<g>
	<path fill-rule="evenodd" clip-rule="evenodd" fill="#2A1327" d="M70.311,139.265c-3.64-1.583-0.121-7.228,4.086-5.448
		C73.029,135.627,73.109,138.885,70.311,139.265z"/>
	<path fill-rule="evenodd" clip-rule="evenodd" fill="#FFFFFF" d="M93.464,133.817c1.676,0.595,2.797,1.743,2.724,4.086
		c-7.058,7.148-15.862,19.371-25.878,19.068C75.457,146.681,84.07,139.859,93.464,133.817z"/>
	<path fill-rule="evenodd" clip-rule="evenodd" fill="#2A1327" d="M113.894,140.627c-0.577-2.847,0.934-3.606,1.362-5.448
		c4.299-0.666,4.81,2.455,9.534,1.362c0,1.362,0,2.724,0,4.086C121.087,143.59,118.149,142.945,113.894,140.627z"/>
	<path fill-rule="evenodd" clip-rule="evenodd" fill="#FFFFFF" d="M139.772,141.989c0-0.908,0-1.816,0-2.724
		C147.243,134.129,145.275,147.493,139.772,141.989z"/>
	<path fill-rule="evenodd" clip-rule="evenodd" fill="#C7C6C0" d="M194.252,139.265c-1.865,0.973-10.255,6.475-9.534,1.362
		C187.915,140.192,189.83,138.476,194.252,139.265z"/>
	<path fill-rule="evenodd" clip-rule="evenodd" fill="#76676A" d="M79.845,163.78c0-0.453,0-0.908,0-1.361c4.54,0,9.08,0,13.62,0
		c0,0.453,0,0.908,0,1.361C88.925,163.78,84.384,163.78,79.845,163.78z"/>
	<path fill-rule="evenodd" clip-rule="evenodd" fill="#2A1327" d="M232.387,159.695c3.165-0.922,3.646-4.527,6.811-5.449
		c-9.949,10.026-8.545,31.407-28.602,31.326c-5.034-0.413-5.107-5.788-8.172-8.172c-7.281,10.879-14.392,21.928-24.517,29.964
		c-4.086,0-8.172,0-12.258,0c-8.319-4.847-14.755-11.577-16.344-23.154c-12.081-0.177-21.756-2.76-32.688-4.086
		c-8.427,20.366-46.095,16.456-40.859-13.619c-1.416-3.125-9.726,0.645-10.896-2.725c4.994,0,9.987,0,14.982,0
		c4.54,0,9.08,0,13.62,0c6.818-0.916,10.542,1.262,16.344,1.362c2.724,0,5.448,0,8.172,0c5.025,2.238,12.812,1.716,19.067,2.724
		c2.724,0,5.448,0,8.172,0c0.587,3.046,6.713,0.553,9.534,1.362c-0.067,15.05,2.998,26.966,13.62,31.326
		c19.853,6.223,23.328-15.708,27.239-29.964c2.271,0,4.54,0,6.811,0c1.448,3.091,8.562,0.519,12.258,1.361
		c2.555,3.549,12.324-8.289,16.344-12.257C231.479,159.695,231.934,159.695,232.387,159.695z M89.378,167.866
		c-0.151-3.479-4.561-2.702-8.172-2.724c-5.779,22.487,21.563,30.311,29.964,14.981c-4.166,0.988-4.006-2.35-8.172-1.361
		c-4.879-0.114-7.87-2.117-12.258-2.725C91.729,171.873,88.39,172.032,89.378,167.866z"/>
	<path fill-rule="evenodd" clip-rule="evenodd" fill="#76676A" d="M236.474,154.246c6.432-4.463,12.112-9.678,17.705-14.981
		c1.159-0.25,1.285,0.532,1.362,1.362c-5.807,4.182-10.844,9.132-16.344,13.619c-3.164,0.922-3.646,4.527-6.811,5.449
		c0-0.455,0-0.908,0-1.363C234.349,157.569,235.711,156.207,236.474,154.246z"/>
	<path fill-rule="evenodd" clip-rule="evenodd" fill="#DBDCD6" d="M199.699,116.111c3.43,2.927,7.597,5.115,10.896,8.172
		c-4.08,0.896,1.302,2.911,0,5.448C206.787,125.366,203.428,120.555,199.699,116.111z"/>
	<path fill-rule="evenodd" clip-rule="evenodd" fill="#DBDCD6" d="M123.428,98.405c5.901,0,11.804,0,17.706,0
		c21.034,3.028,44.741,3.383,55.842,16.344c-1.103-0.259-1.358-1.367-2.724-1.362c-1.334,4.552,10.499,7.63,8.172,17.706
		c-0.602,3.938-2.872,6.209-6.811,6.81c0.753,2.425,0.7,5.656,2.725,6.81c-4.365,8.451-11.11,3.084-17.706,0
		c-4.746,3.881-6.548,10.704-8.172,17.706c1.184,3.355,3.173,5.905,8.172,5.447c-2.332,3.117-10.396,0.5-14.982,1.362
		c-8.078,0.815-12.138-2.39-20.43-1.362c-2.724,0-5.448,0-8.172,0c-8.748-2.814-2.284-2.887,5.448-2.724
		c-13.603-3.06-25.819-4.171-35.412-14.982c-7.744-1.915-23.688,9.539-10.896,10.896c-0.037,1.325-1.667,1.058-2.724,1.362
		c-4.54,0-9.08,0-13.62,0c-4.995,0-9.988,0-14.982,0c-0.94-10.474,5.835-13.233,5.448-23.154c2.798-0.379,2.719-3.638,4.086-5.448
		C87.486,118.758,99.079,102.204,123.428,98.405z M70.311,156.971c10.016,0.303,18.82-11.92,25.878-19.068
		c0.073-2.343-1.048-3.491-2.724-4.086C84.07,139.859,75.457,146.681,70.311,156.971z M124.79,140.627c0-1.362,0-2.724,0-4.086
		c-4.724,1.093-5.235-2.028-9.534-1.362c-0.428,1.842-1.939,2.601-1.362,5.448c2.521,2.927,4.355,6.541,10.896,5.448
		c-0.059-1.875,0.641-2.991,1.362-4.086C125.321,141.912,124.54,141.785,124.79,140.627z M139.772,139.265c0,0.908,0,1.816,0,2.724
		C145.275,147.493,147.243,134.129,139.772,139.265z M184.718,140.627c-0.721,5.113,7.669-0.389,9.534-1.362
		C189.83,138.476,187.915,140.192,184.718,140.627z"/>
	<path fill-rule="evenodd" clip-rule="evenodd" fill="#A7A39D" d="M232.387,140.627c-0.229,2.953,4.831,0.617,6.811,1.362
		c4.723-1.691,2.509-3.961,4.086-6.81c2.271,0,4.539,0,6.81,0c-0.646,6.463,1.699,1.508,4.086,4.086
		c-5.593,5.303-11.273,10.519-17.705,14.981c0.289-4.375-4.857-3.314-6.811-5.447c-3.509,2.291,1.156,7.815,2.724,9.533
		c0,0.455,0,0.908,0,1.363c-0.453,0-0.908,0-1.361,0c-4.586,2.521-0.16-0.352-2.725-2.725c-10.991,1.111-5.06,13.714-13.619,14.981
		c-3.696-0.843-10.81,1.729-12.258-1.361c4.994,0,9.987,0,14.981,0c-2.433-6.114-5.475-21.86,2.724-24.516
		c0.976-3.698-6.423,0.974-5.447-2.724c2.967-3.636,1.762-6.266,2.724-9.534c4.731,0.262,5.171,4.817,9.534,5.448
		C228.151,140.323,230.015,140.729,232.387,140.627z"/>
	<path fill-rule="evenodd" clip-rule="evenodd" fill="#C7C6C0" d="M165.649,169.229c4.587-0.862,12.65,1.755,14.982-1.362
		c-4.999,0.458-6.988-2.092-8.172-5.447c1.624-7.002,3.426-13.825,8.172-17.706c6.596,3.084,13.341,8.451,17.706,0
		c-2.024-1.154-1.972-4.385-2.725-6.81c3.938-0.601,6.209-2.872,6.811-6.81c2.327-10.076-9.506-13.153-8.172-17.706
		c1.365-0.005,1.621,1.103,2.724,1.362s1.358,1.367,2.724,1.362c3.729,4.443,7.088,9.255,10.896,13.62
		c1.302-2.537-4.08-4.552,0-5.448c6.221,2.008,11.884,7.938,21.791,9.534c8.794,1.416,23.367-5.1,25.878,5.448
		c-1.103,0.259-1.357,1.367-2.724,1.362c-0.077-0.831-0.203-1.612-1.362-1.362c-2.387-2.578-4.732,2.377-4.086-4.086
		c-2.271,0-4.539,0-6.81,0c-1.577,2.849,0.637,5.119-4.086,6.81c-1.979-0.745-7.04,1.591-6.811-1.362
		c2.156-0.113,5.195,0.655,5.448-1.362c-2.209-1.146-15.555-4.542-10.896,0c-4.363-0.63-4.803-5.186-9.534-5.448
		c-0.962,3.268,0.243,5.897-2.724,9.534c-0.976,3.698,6.423-0.974,5.447,2.724c-8.198,2.656-5.156,18.402-2.724,24.516
		c-4.994,0-9.987,0-14.981,0c-2.271,0-4.54,0-6.811,0c-1.361,0-2.724,0-4.086,0C183.338,169.699,171.574,172.384,165.649,169.229z"
		/>
	<path fill-rule="evenodd" clip-rule="evenodd" fill="#C7C6C0" d="M236.474,154.246c-0.763,1.961-2.125,3.323-4.087,4.086
		c-1.567-1.718-6.232-7.242-2.724-9.533C231.616,150.932,236.763,149.871,236.474,154.246z"/>
	<path fill-rule="evenodd" clip-rule="evenodd" fill="#76676A" d="M214.682,171.952c8.56-1.268,2.628-13.87,13.619-14.981
		c2.564,2.373-1.861,5.246,2.725,2.725C227.006,163.663,217.236,175.501,214.682,171.952z"/>
	<path fill-rule="evenodd" clip-rule="evenodd" fill="#C7C6C0" d="M113.894,140.627c4.255,2.318,7.193,2.963,10.896,0
		c-0.25,1.158,0.531,1.285,1.362,1.362c-0.721,1.095-1.421,2.211-1.362,4.086C118.249,147.168,116.415,143.554,113.894,140.627z"/>
	<path fill-rule="evenodd" clip-rule="evenodd" fill="#DBDCD6" d="M109.808,165.143c-0.219-1.596-2.483-1.149-4.086-1.362
		c7.218-3.885,37.614,2.777,12.258,1.362C115.256,165.143,112.532,165.143,109.808,165.143z"/>
	<path fill-rule="evenodd" clip-rule="evenodd" fill="#76676A" d="M191.527,170.591c1.362,0,2.725,0,4.086,0
		c-3.911,14.256-7.387,36.187-27.239,29.964C186.883,201.357,190.715,187.483,191.527,170.591z"/>
	<path fill-rule="evenodd" clip-rule="evenodd" fill="#76676A" d="M102.999,178.763c4.166-0.988,4.006,2.35,8.172,1.361
		c-8.401,15.329-35.743,7.506-29.964-14.981c3.611,0.021,8.021-0.756,8.172,2.724c-1.582-1.143-3.651-1.797-6.81-1.361
		c0.343,14.063,10.923,21.771,24.516,14.981C106.776,179.524,103.02,181.012,102.999,178.763z"/>
	<path fill-rule="evenodd" clip-rule="evenodd" fill="#A7A39D" d="M145.22,167.866c8.292-1.027,12.352,2.178,20.43,1.362
		c5.925,3.155,17.688,0.471,25.878,1.362c-0.812,16.893-4.645,30.767-23.153,29.964c-10.622-4.36-13.688-16.276-13.62-31.326
		C151.933,168.419,145.807,170.912,145.22,167.866z"/>
	<path fill-rule="evenodd" clip-rule="evenodd" fill="#DBDCD6" d="M232.387,140.627c-2.372,0.103-4.235-0.304-5.447-1.362
		c-4.659-4.542,8.687-1.146,10.896,0C237.582,141.282,234.543,140.514,232.387,140.627z"/>
	<path fill-rule="evenodd" clip-rule="evenodd" fill="#A7A39D" d="M64.863,162.419c4.994,0,9.987,0,14.982,0
		c0,0.453,0,0.908,0,1.361c-4.995,0-9.988,0-14.982,0C64.107,163.784,63.317,162.678,64.863,162.419z"/>
	<path fill-rule="evenodd" clip-rule="evenodd" fill="#C7C6C0" d="M117.98,165.143c25.355,1.415-5.04-5.247-12.258-1.362
		c1.603,0.213,3.867-0.233,4.086,1.362c-5.802-0.101-9.526-2.278-16.344-1.362c0-0.453,0-0.908,0-1.361
		c1.058-0.305,2.687-0.037,2.724-1.362c-12.792-1.357,3.152-12.811,10.896-10.896c9.592,10.811,21.809,11.922,35.412,14.982
		c-7.732-0.163-14.196-0.091-5.448,2.724C130.793,166.858,123.005,167.381,117.98,165.143z"/>
	<path fill-rule="evenodd" clip-rule="evenodd" fill="#A7A39D" d="M102.999,178.763c0.021,2.249,3.777,0.762,4.086,2.724
		c-13.593,6.79-24.173-0.918-24.516-14.981c3.159-0.436,5.229,0.219,6.81,1.361c-0.988,4.166,2.35,4.007,1.362,8.172
		C95.128,176.646,98.12,178.648,102.999,178.763z"/>
	<path fill-rule="evenodd" clip-rule="evenodd" fill="#FFFFFF" d="M177.907,207.364c10.125-8.036,17.235-19.085,24.517-29.964
		c3.064,2.384,3.138,7.759,8.172,8.172c20.057,0.081,18.652-21.3,28.602-31.326c5.5-4.487,10.537-9.438,16.344-13.619
		c1.366,0.004,1.621-1.104,2.724-1.362c-2.511-10.547-17.084-4.032-25.878-5.448c-9.907-1.595-15.57-7.525-21.791-9.534
		c-3.3-3.057-7.467-5.245-10.896-8.172c-1.365,0.004-1.621-1.104-2.724-1.362c-11.101-12.961-34.808-13.315-55.842-16.344
		c39.498,0,78.995,0,118.493,0c0,36.319,0,72.639,0,108.959C232.387,207.364,205.147,207.364,177.907,207.364z"/>
</g>
</svg>
