<?xml version="1.0" encoding="utf-8"?>
<!-- Generator: Adobe Illustrator 15.1.0, SVG Export Plug-In . SVG Version: 6.00 Build 0)  -->
<!DOCTYPE svg PUBLIC "-//W3C//DTD SVG 1.1//EN" "http://www.w3.org/Graphics/SVG/1.1/DTD/svg11.dtd">
<svg version="1.1" id="Layer_1" xmlns="http://www.w3.org/2000/svg" xmlns:xlink="http://www.w3.org/1999/xlink" x="0px" y="0px"
	 width="300px" height="300px" viewBox="0 0 300 300" enable-background="new 0 0 300 300" xml:space="preserve">
<rect fill="#249761" width="300" height="300"/>
<g>
	<g>
		<path fill-rule="evenodd" clip-rule="evenodd" fill="#371F0F" d="M137.925,77.969c0.983-0.159,2.631-0.159,3.613,0
			C140.334,77.969,139.13,77.969,137.925,77.969z"/>
		<path fill-rule="evenodd" clip-rule="evenodd" fill="#371F0F" d="M135.643,78.063c0.194-0.218,0.79-0.034,1.142-0.095
			C136.59,78.187,135.994,78.003,135.643,78.063z"/>
		<path fill-rule="evenodd" clip-rule="evenodd" fill="#371F0F" d="M142.489,77.969c0.32,0.06,0.883-0.123,1.046,0.095
			C143.215,78.003,142.652,78.186,142.489,77.969z"/>
		<path fill-rule="evenodd" clip-rule="evenodd" fill="#371F0F" d="M118.527,85.766c0.32-0.158,1.297-0.158,1.617,0
			C119.604,85.766,119.066,85.766,118.527,85.766z"/>
		<path fill-rule="evenodd" clip-rule="evenodd" fill="#371F0F" d="M230.256,98.317c0.352-0.158,1.36-0.158,1.712,0
			C231.397,98.317,230.826,98.317,230.256,98.317z"/>
		<path fill-rule="evenodd" clip-rule="evenodd" fill="#A05A2C" d="M217.989,151.281c0.158,1.174,0.158,3.012,0,4.184
			C217.989,154.07,217.989,152.676,217.989,151.281z"/>
		<path fill-rule="evenodd" clip-rule="evenodd" fill="#A05A2C" d="M57.385,175.529c0.032,0,0.063,0,0.095,0
			c0,0.348,0,0.697,0,1.047c-0.032,0-0.063,0-0.095,0C57.385,176.227,57.385,175.877,57.385,175.529z"/>
		<path fill-rule="evenodd" clip-rule="evenodd" fill="#371F0F" d="M61.474,179.238c0.032,0,0.063,0,0.095,0c0,0.379,0,0.76,0,1.141
			C61.351,180.186,61.535,179.59,61.474,179.238z"/>
		<path fill-rule="evenodd" clip-rule="evenodd" fill="#A05A2C" d="M57.385,179.809c0.032,0,0.063,0,0.095,0c0,0.443,0,0.887,0,1.33
			c-0.032,0-0.063,0-0.095,0C57.385,180.695,57.385,180.252,57.385,179.809z"/>
		<path fill-rule="evenodd" clip-rule="evenodd" fill="#371F0F" d="M127.561,220.031c0.919,0,1.838,0,2.757,0
			c0,0.031,0,0.062,0,0.094C129.43,220.062,128.29,220.252,127.561,220.031z"/>
		<path fill-rule="evenodd" clip-rule="evenodd" fill="#502D16" d="M130.318,220.125c0-0.031,0-0.062,0-0.094
			c0.317,0,0.634,0,0.951,0c0,0.031,0,0.062,0,0.094C130.952,220.125,130.635,220.125,130.318,220.125z"/>
		<path fill-rule="evenodd" clip-rule="evenodd" fill="#371F0F" d="M131.269,220.125c0-0.031,0-0.062,0-0.094
			c0.697,0,1.395,0,2.093,0C132.853,220.252,131.936,220.062,131.269,220.125z"/>
		<path fill-rule="evenodd" clip-rule="evenodd" fill="#A05A2C" d="M126.705,224.119c0.349,0,0.697,0,1.046,0
			c0,0.031,0,0.064,0,0.096C127.431,224.154,126.867,224.338,126.705,224.119z"/>
		<path fill-rule="evenodd" clip-rule="evenodd" fill="#371F0F" d="M88.289,104.023c0.404-0.483,0.848-0.927,1.331-1.332
			C89.216,103.175,88.772,103.619,88.289,104.023z"/>
		<path fill-rule="evenodd" clip-rule="evenodd" fill="#371F0F" d="M193.646,96.606c0.421,0.34,0.801,0.721,1.142,1.141
			C194.368,97.406,193.987,97.026,193.646,96.606z"/>
		<path fill-rule="evenodd" clip-rule="evenodd" fill="#A05A2C" d="M65.087,203.01c0.452,0.373,0.864,0.785,1.236,1.236
			C65.872,203.873,65.46,203.461,65.087,203.01z"/>
		<path fill-rule="evenodd" clip-rule="evenodd" fill="#371F0F" d="M133.741,92.993c0.483,0.404,0.927,0.848,1.331,1.331
			C134.589,93.92,134.146,93.476,133.741,92.993z"/>
		<path fill-rule="evenodd" clip-rule="evenodd" fill="#371F0F" d="M135.643,94.989c0.357,0.277,0.674,0.594,0.951,0.951
			C136.237,95.663,135.92,95.346,135.643,94.989z"/>
		<path fill-rule="evenodd" clip-rule="evenodd" fill="#371F0F" d="M179.954,164.404c4.255,1.758,6.203-1.488,8.272-3.898
			c3.896-4.538,7.459-9.779,9.984-15.405c3.862-8.604,5.541-17.837,5.325-28.717c7.469,11.867,12.613,30.003,9.224,49.256
			c-2.536,14.404-9.476,26.115-17.781,35.373c-2.357,2.625-4.493,5.557-9.509,4.373c1.38-2.674,2.607-5.291,2.853-8.938
			c0.398-5.943-1.079-11.797-2.758-17.211c-1.67-5.387-3.442-10.4-5.42-14.549C180.101,164.598,179.966,164.533,179.954,164.404z"/>
		<path fill-rule="evenodd" clip-rule="evenodd" fill="#371F0F" d="M189.653,98.413c0.959,0.879,1.878,1.799,2.758,2.757
			C191.452,100.291,190.532,99.372,189.653,98.413z"/>
		<path fill-rule="evenodd" clip-rule="evenodd" fill="#502D16" d="M143.535,78.063c20.607,1.549,34.472,9.84,46.118,20.349
			c0.879,0.959,1.799,1.878,2.758,2.757c4.282,4.498,8.02,9.54,11.125,15.214c0.216,10.879-1.463,20.112-5.325,28.717
			c-2.525,5.625-6.089,10.867-9.984,15.405c-2.069,2.41-4.018,5.656-8.272,3.898c-11.202-26.072-25.87-48.681-43.36-68.464
			c-0.277-0.357-0.594-0.674-0.951-0.951c-0.131-0.281-0.438-0.385-0.57-0.666c-0.404-0.483-0.848-0.927-1.331-1.331
			c-3.671-3.271-7.226-6.657-13.598-7.227c-0.32-0.158-1.296-0.158-1.617,0c-0.903,0.016-1.633,0.205-2.472,0.286
			c1.153-4.816,5.647-5.739,10.935-6.847c2.801-0.586,5.831-1.051,8.653-1.141c0.352-0.061,0.947,0.124,1.142-0.095
			c0.38,0,0.761,0,1.141,0c1.205,0,2.409,0,3.613,0c0.317,0,0.635,0,0.951,0C142.652,78.186,143.215,78.003,143.535,78.063z"/>
		<path fill-rule="evenodd" clip-rule="evenodd" fill="#6E3E1E" d="M91.142,106.971c0.721-0.801,1.482-1.561,2.282-2.282
			C92.703,105.489,91.942,106.25,91.142,106.971z"/>
		<path fill-rule="evenodd" clip-rule="evenodd" fill="#371F0F" d="M68.13,200.252c0.579,0.5,1.117,1.039,1.616,1.617
			C69.168,201.369,68.629,200.83,68.13,200.252z"/>
		<path fill-rule="evenodd" clip-rule="evenodd" fill="#A05A2C" d="M93.424,104.688c4.736-4.586,10.33-8.817,16.926-11.886
			c2.206-1.026,4.465-2.228,6.751-2.757c5.043-1.169,9.316,1.94,12.267,4.469c3.18,2.726,5.663,5.934,8.178,8.938
			c5.295,6.329,10.359,12.666,14.929,19.303c9.617,13.968,17.477,28.76,24.152,44.311c-7.029,17.004-21.293,27.768-39.271,34.611
			c-16.687,6.354-44.413,9.777-63.994,3.139c-1.354-0.834-2.488-1.887-3.614-2.947c-0.499-0.578-1.038-1.117-1.616-1.617
			c-1.833-2.354-4.163-4.754-5.04-8.178c-0.873-3.408-1.402-7.318-1.521-11.695c0-0.381,0-0.762,0-1.141c0-1.016,0-2.029,0-3.043
			c0.798-15.451,4.964-27.952,10.174-39.272c5.173-11.241,11.202-21.536,19.398-29.953C91.942,106.25,92.703,105.489,93.424,104.688
			z"/>
		<path fill-rule="evenodd" clip-rule="evenodd" fill="#6E3E1E" d="M73.36,204.816c19.581,6.639,47.308,3.215,63.994-3.139
			c17.979-6.844,32.242-17.607,39.271-34.611c2.797,6.412,5.468,13.244,6.941,20.92c0.796,4.145,0.989,8.877-0.285,12.361
			c-1.253,3.428-3.658,5.256-6.562,7.322c-10.809,7.691-25.47,11.674-43.359,12.361c-0.698,0-1.396,0-2.093,0
			c-0.316,0-0.634,0-0.951,0c-0.919,0-1.838,0-2.757,0c-10.688-0.182-20.831-1.994-29.858-4.564
			c-9.156-2.607-17.353-5.662-24.057-10.365C73.554,205.037,73.383,204.967,73.36,204.816z"/>
		<path fill-rule="evenodd" clip-rule="evenodd" fill="#371F0F" d="M207.625,115.148c0.857-0.124,2.422-1.208,3.423-1.711
			c3.199-1.608,6.764-3.635,10.745-4.564c5.216-1.217,11.124-0.085,16.26,0.571c1.017,0.13,2.873,0.726,2.378-0.666
			c0.186,2.88-0.254,5.959-1.142,8.083c-4.324-1.515-8.228-3.755-13.598-4.089c-7.217-0.448-11.547,3.429-16.354,5.61
			C208.86,117.209,208.212,116.209,207.625,115.148z"/>
		<path fill-rule="evenodd" clip-rule="evenodd" fill="#502D16" d="M231.968,98.317c6.509-0.202,8.065,4.549,8.463,10.46
			c0.495,1.391-1.361,0.795-2.378,0.666c-5.136-0.656-11.044-1.788-16.26-0.571c-3.981,0.929-7.546,2.956-10.745,4.564
			c-1.001,0.503-2.565,1.587-3.423,1.711c-1.188-1.982-2.346-3.994-3.613-5.896c6.481-5.911,14.76-10.026,26.244-10.935
			C230.826,98.317,231.397,98.317,231.968,98.317z"/>
		<path fill-rule="evenodd" clip-rule="evenodd" fill="#371F0F" d="M137.164,73.785c0.983,0,1.966,0,2.948,0
			c0,0.032,0,0.063,0,0.095c-0.982,0-1.965,0-2.948,0C137.164,73.848,137.164,73.816,137.164,73.785z"/>
		<path fill-rule="evenodd" clip-rule="evenodd" fill="#502D16" d="M140.112,73.785c0.729,0,1.458,0,2.187,0
			c0,0.032,0,0.063,0,0.095c-0.729,0-1.458,0-2.187,0C140.112,73.848,140.112,73.816,140.112,73.785z"/>
		<path fill-rule="evenodd" clip-rule="evenodd" fill="#6E3E1E" d="M135.072,73.975c0.194-0.218,0.79-0.035,1.142-0.095
			C136.02,74.098,135.424,73.914,135.072,73.975z"/>
		<path fill-rule="evenodd" clip-rule="evenodd" fill="#A05A2C" d="M143.06,73.88c0.383,0.061,1.012-0.124,1.236,0.095
			C143.913,73.914,143.285,74.099,143.06,73.88z"/>
		<path fill-rule="evenodd" clip-rule="evenodd" d="M144.296,73.975c22.015,1.979,37.062,10.924,49.351,22.631
			c0.341,0.42,0.722,0.8,1.142,1.141c2.414,2.499,4.724,5.102,6.751,7.987c7.222-5.933,15.925-10.384,27.956-11.506
			c1.015,0,2.028,0,3.043,0c8.373,0.217,11.208,5.971,11.981,13.788c0.061,0.383-0.124,1.011,0.095,1.236c0,0.159,0,0.317,0,0.476
			c-0.221,0.414-0.033,1.235-0.095,1.807c-0.156,1.932-0.418,3.744-0.951,5.515c-0.477,1.583-1.124,3.346-2.758,3.899
			c-1.162,0.393-2.64-0.177-3.898-0.666c-3.469-1.347-7.046-3.137-11.315-3.423c-3.567-0.239-5.679,0.792-7.987,1.901
			c-2.155,1.036-4.211,1.971-6.371,3.423c3.346,7.812,5.97,16.344,6.656,26.815c0.062,0.414-0.124,1.075,0.095,1.331
			c0,0.318,0,0.635,0,0.951c0,1.395,0,2.789,0,4.184c0,0.318,0,0.635,0,0.951c-0.219,0.257-0.033,0.918-0.095,1.332
			c-1.427,18.559-8.403,32.039-17.496,43.266c-2.966,3.66-5.963,8.039-11.601,8.652c-0.352,0.061-0.947-0.123-1.142,0.096
			c-0.939-0.086-1.825-0.164-2.853-0.381c-0.851-0.18-1.814-0.783-2.377-0.762c-0.588,0.025-1.543,1.092-2.282,1.617
			c-11.259,8.012-25.642,12.723-43.836,13.787c-0.383,0.062-1.011-0.123-1.236,0.096c-0.349,0-0.697,0-1.046,0
			c-0.888,0.062-2.027-0.125-2.758,0.096c-0.443,0-0.887,0-1.331,0c-0.54-0.221-1.489-0.033-2.187-0.096c-0.349,0-0.697,0-1.046,0
			c-0.38,0-0.761,0-1.141,0c-0.194-0.219-0.79-0.033-1.141-0.096c-12.049-0.707-23.091-2.93-32.9-6.084
			c-9.763-3.141-18.594-7.258-25.198-13.693c-0.373-0.451-0.785-0.863-1.236-1.236c-2.026-2.652-4.545-5.393-5.705-9.033
			c-1.206-3.783-1.468-8.076-1.902-12.838c0-0.443,0-0.887,0-1.33c-0.062-0.445,0.124-1.139-0.095-1.426c0-0.254,0-0.508,0-0.762
			c0.218-0.162,0.035-0.727,0.095-1.045c0-0.35,0-0.699,0-1.047c0.949-15.826,5.361-28.782,10.65-40.508
			c5.278-11.703,11.777-22.222,20.159-30.999c0.483-0.404,0.927-0.848,1.331-1.332c6.079-6.219,13.447-11.149,21.871-15.024
			c1.061-5.451,3.287-9.128,7.892-10.65c4.6-1.52,10.132-2.658,15.689-3.042c0.352-0.061,0.947,0.123,1.142-0.095
			c0.316,0,0.634,0,0.95,0c0.983,0,1.966,0,2.948,0c0.729,0,1.458,0,2.187,0c0.254,0,0.508,0,0.761,0
			C143.285,74.099,143.913,73.914,144.296,73.975z M137.925,77.969c-0.38,0-0.761,0-1.141,0c-0.352,0.061-0.947-0.124-1.142,0.095
			c-2.822,0.09-5.852,0.555-8.653,1.141c-5.288,1.107-9.782,2.031-10.935,6.847c0.839-0.081,1.569-0.27,2.472-0.286
			c0.539,0,1.078,0,1.617,0c6.372,0.57,9.926,3.957,13.598,7.227c0.404,0.483,0.848,0.927,1.331,1.331
			c0.132,0.281,0.439,0.385,0.57,0.666c0.277,0.357,0.595,0.674,0.951,0.951c17.49,19.783,32.158,42.392,43.36,68.464
			c0.012,0.129,0.146,0.193,0.19,0.285c1.978,4.148,3.75,9.162,5.42,14.549c1.679,5.414,3.156,11.268,2.758,17.211
			c-0.245,3.646-1.473,6.264-2.853,8.938c5.016,1.184,7.151-1.748,9.509-4.373c8.306-9.258,15.245-20.969,17.781-35.373
			c3.39-19.253-1.755-37.39-9.224-49.256c-3.105-5.675-6.843-10.716-11.125-15.214c-0.88-0.958-1.799-1.878-2.758-2.757
			c-11.646-10.509-25.511-18.8-46.118-20.349c-0.163-0.217-0.726-0.035-1.046-0.095c-0.316,0-0.634,0-0.951,0
			C140.556,77.81,138.908,77.81,137.925,77.969z M176.626,167.066c-6.676-15.551-14.535-30.343-24.152-44.311
			c-4.569-6.637-9.634-12.975-14.929-19.303c-2.515-3.004-4.998-6.212-8.178-8.938c-2.95-2.529-7.223-5.638-12.267-4.469
			c-2.286,0.53-4.545,1.731-6.751,2.757c-6.596,3.069-12.19,7.3-16.926,11.886c-0.8,0.721-1.561,1.481-2.282,2.282
			c-8.196,8.417-14.225,18.712-19.398,29.953c-5.21,11.32-9.376,23.821-10.174,39.272c-0.222,0.824-0.032,2.059-0.095,3.043
			c0.061,0.352-0.123,0.947,0.095,1.141c0.119,4.377,0.648,8.287,1.521,11.695c0.877,3.424,3.207,5.824,5.04,8.178
			c0.499,0.578,1.038,1.117,1.616,1.617c1.126,1.061,2.26,2.113,3.614,2.947c0.022,0.15,0.193,0.221,0.285,0.285
			c6.705,4.703,14.901,7.758,24.057,10.365c9.027,2.57,19.17,4.383,29.858,4.564c0.729,0.221,1.87,0.031,2.757,0.094
			c0.317,0,0.634,0,0.951,0c0.667-0.062,1.584,0.127,2.093-0.094c17.89-0.688,32.551-4.67,43.359-12.361
			c2.903-2.066,5.309-3.895,6.562-7.322c1.274-3.484,1.081-8.217,0.285-12.361C182.094,180.311,179.423,173.479,176.626,167.066z
			 M230.256,98.317c-11.484,0.909-19.763,5.024-26.244,10.935c1.268,1.902,2.426,3.914,3.613,5.896
			c0.587,1.062,1.235,2.062,1.712,3.233c4.808-2.181,9.138-6.059,16.354-5.61c5.37,0.333,9.273,2.574,13.598,4.089
			c0.888-2.124,1.327-5.203,1.142-8.083c-0.397-5.911-1.954-10.662-8.463-10.46C231.616,98.159,230.607,98.159,230.256,98.317z"/>
		<path fill-rule="evenodd" clip-rule="evenodd" fill="#502D16" d="M229.495,94.229c0.793-0.158,2.25-0.158,3.043,0
			C231.523,94.229,230.51,94.229,229.495,94.229z"/>
		<path fill-rule="evenodd" clip-rule="evenodd" fill="#A05A2C" d="M244.614,109.252c-0.219-0.225-0.034-0.853-0.095-1.236
			c0.031,0,0.063,0,0.095,0C244.614,108.429,244.614,108.84,244.614,109.252z"/>
		<path fill-rule="evenodd" clip-rule="evenodd" fill="#502D16" d="M244.614,109.728c0,0.602,0,1.205,0,1.807
			c-0.031,0-0.063,0-0.095,0C244.581,110.963,244.394,110.142,244.614,109.728z"/>
		<path fill-rule="evenodd" clip-rule="evenodd" fill="#A05A2C" d="M217.895,149c0.219,0.256,0.033,0.917,0.095,1.331
			C217.771,150.074,217.956,149.414,217.895,149z"/>
		<path fill-rule="evenodd" clip-rule="evenodd" fill="#A05A2C" d="M217.989,156.416c-0.062,0.414,0.124,1.075-0.095,1.332
			C217.956,157.334,217.771,156.673,217.989,156.416z"/>
		<path fill-rule="evenodd" clip-rule="evenodd" fill="#502D16" d="M57.48,176.576c-0.061,0.318,0.123,0.883-0.095,1.045
			c0-0.348,0-0.697,0-1.045C57.417,176.576,57.449,176.576,57.48,176.576z"/>
		<path fill-rule="evenodd" clip-rule="evenodd" fill="#502D16" d="M61.569,176.195c0,1.014,0,2.027,0,3.043
			c-0.032,0-0.063,0-0.095,0C61.537,178.254,61.348,177.02,61.569,176.195z"/>
		<path fill-rule="evenodd" clip-rule="evenodd" fill="#502D16" d="M57.385,178.383c0.219,0.287,0.034,0.98,0.095,1.426
			c-0.032,0-0.063,0-0.095,0C57.385,179.332,57.385,178.857,57.385,178.383z"/>
		<path fill-rule="evenodd" clip-rule="evenodd" fill="#502D16" d="M187.656,209.762c0.194-0.219,0.79-0.035,1.142-0.096
			C188.604,209.885,188.008,209.701,187.656,209.762z"/>
		<path fill-rule="evenodd" clip-rule="evenodd" fill="#A05A2C" d="M124.422,224.023c0.352,0.062,0.947-0.123,1.141,0.096
			C125.212,224.059,124.616,224.242,124.422,224.023z"/>
		<path fill-rule="evenodd" clip-rule="evenodd" fill="#6E3E1E" d="M135.072,224.119c0.226-0.219,0.854-0.033,1.236-0.096
			C136.084,224.242,135.455,224.059,135.072,224.119z"/>
		<path fill-rule="evenodd" clip-rule="evenodd" fill="#371F0F" d="M127.75,224.119c0.698,0.062,1.647-0.125,2.187,0.096
			c-0.729,0-1.458,0-2.187,0C127.75,224.184,127.75,224.15,127.75,224.119z"/>
		<path fill-rule="evenodd" clip-rule="evenodd" fill="#6E3E1E" d="M131.269,224.215c0.73-0.221,1.87-0.033,2.758-0.096
			C133.297,224.34,132.157,224.152,131.269,224.215z"/>
	</g>
</g>
</svg>
