<?xml version="1.0" encoding="utf-8"?>
<!-- Generator: Adobe Illustrator 15.1.0, SVG Export Plug-In . SVG Version: 6.00 Build 0)  -->
<!DOCTYPE svg PUBLIC "-//W3C//DTD SVG 1.1//EN" "http://www.w3.org/Graphics/SVG/1.1/DTD/svg11.dtd">
<svg version="1.1" id="Layer_1" xmlns="http://www.w3.org/2000/svg" xmlns:xlink="http://www.w3.org/1999/xlink" x="0px" y="0px"
	 width="300px" height="300px" viewBox="0 0 300 300" enable-background="new 0 0 300 300" xml:space="preserve">
<rect fill="#333333" width="300" height="300"/>
<path fill="#80BD01" d="M182.856,137.201c0-1.263-0.769-2.523-1.758-3.018l-28.661-16.594c-0.495-0.248-1.015-0.496-1.51-0.496
	h-0.247c-0.496,0-1.014,0.248-1.509,0.496l-28.959,16.594c-1.014,0.494-1.756,1.755-1.756,3.018v44.515
	c0,0.494,0.248,1.262,0.767,1.508c0.52,0.248,1.262,0.248,1.755,0l17.114-9.818c1.015-0.765,1.757-1.754,1.757-3.016v-20.873
	c0-1.262,0.767-2.276,1.756-3.017l7.295-4.279c0.495-0.248,1.261-0.495,1.756-0.495s1.262,0.248,1.757,0.495l7.294,4.279
	c1.016,0.495,1.757,1.755,1.757,3.017v20.873c0,1.262,0.767,2.275,1.757,3.016l17.114,9.818c0.494,0.248,1.261,0.248,1.754,0
	c0.495-0.246,0.769-0.767,0.769-1.508V137.201z"/>
</svg>
