<?xml version="1.0" encoding="utf-8"?>
<!-- Generator: Adobe Illustrator 15.1.0, SVG Export Plug-In . SVG Version: 6.00 Build 0)  -->
<!DOCTYPE svg PUBLIC "-//W3C//DTD SVG 1.1//EN" "http://www.w3.org/Graphics/SVG/1.1/DTD/svg11.dtd">
<svg version="1.1" id="Layer_1" xmlns="http://www.w3.org/2000/svg" xmlns:xlink="http://www.w3.org/1999/xlink" x="0px" y="0px"
	 width="300px" height="300px" viewBox="0 0 300 300" enable-background="new 0 0 300 300" xml:space="preserve">
<rect y="-0.603" fill="#8B4D29" width="300" height="300.602"/>
<g>
	<g>
		<path fill-rule="evenodd" clip-rule="evenodd" d="M109.511,88.5c5.887,0,11.773,0,17.661,0
			c30.557,4.764,50.716,19.925,67.525,38.437c-12.045,8.892-6.624,29.45,6.232,33.243c8.685-0.902,7.332-7.639,15.583-7.271
			c13.58,0.604,11.954,14.609,5.194,22.854c-8.66,10.562-30.598,26.781-36.359,32.204c-6.131-3.05-13.189-4.707-13.505-11.428
			c-0.323-6.871,8.034-7.725,8.311-13.505c0.34-7.129-12.268-16.024-19.738-15.583c-8.678,0.514-20.531,16.376-29.087,24.933
			c-24.183,24.183-62.096,59.488-81.03,79.991c1.739,1.723,0.827,6.099,1.039,9.35C9.85,319.884-27.771,361.908-69.17,400.153
			c-1.731,0-3.463,0-5.194,0c-6.562-6.251-13.81-11.815-18.699-19.738c0-1.731,0-3.463,0-5.194
			c39.319-40.324,79.259-80.03,119.467-119.467c14.967,0.901,24.415-15.065,35.321-25.971
			c16.074-16.074,34.378-34.378,49.864-49.864c8.02-8.02,19.772-17.407,23.894-25.972c18.937-39.354-20.723-52.368-57.136-50.903
			C84.399,93.861,97.166,91.392,109.511,88.5z"/>
	</g>
</g>
<rect x="132.454" y="127.885" transform="matrix(0.7359 0.6771 -0.6771 0.7359 144.9003 -60.1677)" width="34.233" height="55.519"/>
</svg>
