<?xml version="1.0" encoding="utf-8"?>
<!-- Generator: Adobe Illustrator 15.1.0, SVG Export Plug-In . SVG Version: 6.00 Build 0)  -->
<!DOCTYPE svg PUBLIC "-//W3C//DTD SVG 1.1//EN" "http://www.w3.org/Graphics/SVG/1.1/DTD/svg11.dtd">
<svg version="1.1" id="Layer_1" xmlns="http://www.w3.org/2000/svg" xmlns:xlink="http://www.w3.org/1999/xlink" x="0px" y="0px"
	 width="300px" height="300px" viewBox="0 0 300 300" enable-background="new 0 0 300 300" xml:space="preserve">
<rect fill="#222222" width="300" height="300"/>
<g>
	<path fill-rule="evenodd" clip-rule="evenodd" fill="#2B2B2B" d="M183.937,167.043c0-0.176,0-0.35,0-0.525
		c3.687,0.346,8.759-0.695,11.57,0.525C191.649,167.043,187.793,167.043,183.937,167.043z"/>
	<path fill-rule="evenodd" clip-rule="evenodd" fill="#2B2B2B" d="M212.337,167.043c2.812-1.221,7.884-0.18,11.57-0.525
		c0,0.176,0,0.35,0,0.525C220.051,167.043,216.193,167.043,212.337,167.043z"/>
	<path fill-rule="evenodd" clip-rule="evenodd" fill="#393939" d="M101.891,190.184c-0.907,0.873-5.404,0.873-6.312,0
		C97.683,190.184,99.787,190.184,101.891,190.184z"/>
	<path fill-rule="evenodd" clip-rule="evenodd" fill="#393939" d="M207.077,190.184c-0.907,0.873-5.404,0.873-6.312,0
		C202.87,190.184,204.974,190.184,207.077,190.184z"/>
	<path fill-rule="evenodd" clip-rule="evenodd" fill="#636363" d="M107.676,219.637c0-0.176,0-0.352,0-0.525
		c4.211,0.346,9.812-0.697,13.148,0.525C116.441,219.637,112.059,219.637,107.676,219.637z"/>
	<path fill-rule="evenodd" clip-rule="evenodd" fill="#747474" d="M107.676,209.117c12.797,0,25.596,0,38.393,0
		c0-35.062,0-70.125,0-105.187c-3.456-3.381-7.631-6.042-9.992-10.519c-13.94-0.436-29.773,1.022-42.075-1.052
		c-0.657-1.973-0.972-6.5,0-8.415c11.838-2.362,27.983-0.417,41.55-1.052c4.149-4.882,8.407-10.769,16.304-10.519
		c7.156,0.227,11.248,5.332,14.726,10.519c13.74,0.636,30.064-1.313,42.075,1.052c0.972,1.916,0.657,6.442,0,8.415
		c-11.916,2.285-27.928,0.473-41.549,1.052c-3.381,3.457-6.043,7.632-10.519,9.993c0,35.238,0,70.476,0,105.712
		c12.798,0,25.595,0,38.393,0c2.113,1.219,6.479,0.184,9.467,0.527c1.516,0.062,3.443-0.287,4.208,0.525
		c1.076,1.729,0.284,5.326,0.525,7.889c-2.268,0.537-4.25,1.359-7.362,1.053c-1.599,0.33-4.53-0.674-5.26,0.525
		c-25.245,0-50.49,0-75.734,0c-3.336-1.223-8.938-0.18-13.148-0.525c-2.98,0-5.961,0-8.941,0c-1.646-0.107-3.861,0.354-4.733-0.527
		c-0.308-2.578-1.08-6.018,0-8.414c0.765-0.812,2.692-0.463,4.208-0.525C101.196,209.301,105.562,210.336,107.676,209.117z
		 M151.328,81.315c-8.136,0.036-9.521,15.189,2.63,13.148C160.283,91.197,157.622,81.288,151.328,81.315z"/>
	<path fill-rule="evenodd" clip-rule="evenodd" fill="#2B2B2B" d="M117.143,167.043c1.939-1.217,6.128-0.184,8.94-0.525
		C124.145,167.734,119.955,166.701,117.143,167.043z"/>
	<path fill-rule="evenodd" clip-rule="evenodd" fill="#393939" d="M223.907,166.518c3.682,0,7.363,0,11.045,0
		c0-0.176,0-0.352,0-0.527c0.511,0.016,0.408,0.645,0.525,1.053c-3.856,0-7.714,0-11.57,0
		C223.907,166.867,223.907,166.693,223.907,166.518z"/>
	<path fill-rule="evenodd" clip-rule="evenodd" fill="#636363" d="M194.98,209.117c2.987,0.344,7.354-0.691,9.467,0.527
		C201.46,209.301,197.094,210.336,194.98,209.117z"/>
	<path fill-rule="evenodd" clip-rule="evenodd" fill="#4D4D4D" d="M196.559,219.637c0.729-1.199,3.661-0.195,5.26-0.525
		C201.089,220.311,198.157,219.307,196.559,219.637z"/>
	<path fill-rule="evenodd" clip-rule="evenodd" fill="#747474" d="M95.579,190.184c-14.188-1.023-33.405-8.305-33.66-21.562
		c-0.099-5.152,4.812-11.588,7.89-17.355c6.578-12.33,10.874-19.948,17.881-32.609c2.443-4.412,6.045-14.363,10.52-14.726
		c4.66-0.377,9.228,9.405,11.57,13.674c6.811,12.413,10.703,20.212,17.355,32.608c5.093,9.488,12.103,18.469,4.208,28.4
		c-5.873,7.389-17.065,9.652-29.452,11.57C99.787,190.184,97.683,190.184,95.579,190.184z M126.083,166.518
		c1.258-0.32,3.815,0.66,4.208-0.527c-10.525-18.576-20.662-37.541-31.03-56.274c-12.088,17.54-21.259,37.997-32.082,56.801
		c1.402,0,2.805,0,4.208,0c1.764,1.215,5.775,0.184,8.414,0.525c12.447,0,24.895,0,37.342,0
		C119.955,166.701,124.145,167.734,126.083,166.518z"/>
	<path fill-rule="evenodd" clip-rule="evenodd" fill="#747474" d="M200.766,190.184c-14.188-1.023-33.404-8.305-33.659-21.562
		c-0.1-5.152,4.812-11.588,7.889-17.355c6.578-12.33,10.874-19.948,17.882-32.609c2.442-4.412,6.045-14.363,10.519-14.726
		c4.66-0.377,9.229,9.405,11.57,13.674c6.811,12.413,10.703,20.212,17.356,32.608c5.093,9.488,12.103,18.469,4.207,28.4
		c-5.872,7.389-17.064,9.652-29.452,11.57C204.974,190.184,202.87,190.184,200.766,190.184z M234.952,165.99
		c-10.541-18.736-19.668-38.885-31.557-56.274c-10.166,18.76-20.548,37.305-30.504,56.274c-0.277,2.217,7.884,0.523,11.045,1.053
		c3.856,0,7.713,0,11.57,0c5.609,0,11.22,0,16.83,0c3.856,0,7.714,0,11.57,0s7.714,0,11.57,0
		C235.36,166.635,235.463,166.006,234.952,165.99z"/>
	<path fill-rule="evenodd" clip-rule="evenodd" fill="#2B2B2B" d="M71.387,166.518c2.638,0.342,6.649-0.689,8.414,0.525
		C77.162,166.701,73.15,167.732,71.387,166.518z"/>
	<path fill-rule="evenodd" clip-rule="evenodd" fill="#636363" d="M98.209,209.645c2.113-1.219,6.479-0.184,9.467-0.527
		C105.562,210.336,101.196,209.301,98.209,209.645z"/>
	<path fill-rule="evenodd" clip-rule="evenodd" fill="#393939" d="M172.892,165.99c2.637,1.221,7.533,0.182,11.045,0.527
		c0,0.176,0,0.35,0,0.525C180.775,166.514,172.614,168.207,172.892,165.99z"/>
	<path fill-rule="evenodd" clip-rule="evenodd" fill="#4D4D4D" d="M98.734,219.111c2.98,0,5.961,0,8.941,0c0,0.174,0,0.35,0,0.525
		C104.862,219.293,100.674,220.326,98.734,219.111z"/>
</g>
</svg>
