<svg xmlns="http://www.w3.org/2000/svg" viewBox="0 0 1198.3 333"><circle fill="#FED204" cx="1024.5" cy="167.5" r="154"/><g fill="#0265A7"><path d="M378.5 100.5h-30.2V73.3H440v27.2h-30.2v154.7h-31.2V100.5zM448.2 117.4c0-25.7 15.1-46.6 47.9-46.6S544 91.7 544 117.4v93.7c0 25.7-15.1 46.6-47.9 46.6s-47.9-20.9-47.9-46.6v-93.7zm31.3 92.9c0 13.6 4 20.2 16.6 20.2s16.6-6.6 16.6-20.2v-92.2c0-13.6-4-20.2-16.6-20.2s-16.6 6.6-16.6 20.2v92.2zM564.1 73.3h46.4c32.2 0 49.4 17.6 49.4 54.9v72c0 37.3-17.1 54.9-49.4 54.9h-46.4V73.3zm31.3 156.2h10.8c16.6 0 22.4-6.3 22.4-25.4v-79.6c0-19.1-5.8-25.4-22.4-25.4h-10.8v130.4zM698.1 255.2h-30.2l33.5-181.9h38.8l33.5 181.9h-30.2l-5.5-40.3h-34.3l-5.6 40.3zm10.1-67.5h25.2l-12.3-78.1h-.5l-12.4 78.1zM824.3 255.2h-31.2v-75.6L755.3 73.3H787l21.9 69.3h.5l20.9-69.3H862l-37.8 106.3v75.6z"/></g><g fill="#58595B"><path d="M907 207v-16.4h16.4V207H907zM964.7 157.7v-1.9c0-4.4-.7-7.5-2.2-9.4-1.5-1.9-3.6-2.9-6.4-2.9-2.8 0-4.9 1-6.4 2.9s-2.2 5-2.2 9.4v27.6c0 4.4.7 7.5 2.2 9.4 1.5 1.9 3.6 2.9 6.4 2.9 2.8 0 4.9-1 6.4-2.9s2.2-5 2.2-9.4v-4.7h15.6v2c0 4.1-.4 7.8-1.3 11.3-.8 3.4-2.2 6.4-4.2 8.8-1.9 2.5-4.5 4.4-7.5 5.7-3.1 1.3-6.8 2-11.3 2-4.5 0-8.2-.7-11.3-2-3.1-1.3-5.6-3.2-7.5-5.7-1.9-2.5-3.3-5.4-4.2-8.8-.8-3.4-1.3-7.2-1.3-11.3v-22c0-4.1.4-7.8 1.3-11.3.8-3.4 2.2-6.4 4.2-8.8 1.9-2.5 4.5-4.4 7.5-5.7 3.1-1.3 6.8-2 11.3-2 4.4 0 8.1.7 11.1 1.9 3.1 1.3 5.5 3.1 7.4 5.5 1.9 2.4 3.3 5.2 4.2 8.6.9 3.3 1.4 7 1.5 11h-15.5zM988.1 158.5c0-4.1.4-7.8 1.3-11.3.8-3.4 2.2-6.4 4.2-8.8 1.9-2.5 4.5-4.4 7.5-5.7 3.1-1.3 6.8-2 11.3-2 4.5 0 8.2.7 11.3 2 3.1 1.3 5.6 3.3 7.5 5.7 2 2.5 3.3 5.4 4.2 8.8.8 3.4 1.3 7.2 1.3 11.3v22c0 4.1-.4 7.8-1.3 11.3-.8 3.4-2.2 6.4-4.2 8.8-1.9 2.5-4.5 4.4-7.5 5.7-3.1 1.3-6.8 2-11.3 2-4.5 0-8.2-.7-11.3-2-3.1-1.3-5.6-3.2-7.5-5.7-1.9-2.5-3.3-5.4-4.2-8.8-.8-3.4-1.3-7.2-1.3-11.3v-22zm32.8-2.8c0-4.4-.7-7.5-2.2-9.4-1.5-1.9-3.6-2.9-6.4-2.9-2.8 0-4.9 1-6.4 2.9s-2.2 5-2.2 9.4v27.6c0 4.4.7 7.5 2.2 9.4 1.5 1.9 3.6 2.9 6.4 2.9 2.8 0 4.9-1 6.4-2.9s2.2-5 2.2-9.4v-27.6zM1076.2 207v-58.1c0-1.9-.5-3.2-1.5-4.1-1-.9-2.3-1.3-3.9-1.3-1.7 0-3.3.5-4.9 1.4-1.6.9-3.3 2-5.2 3.3V207h-15.6v-74.9h14.8v7.5c1.7-1.4 3.2-2.6 4.5-3.8 1.3-1.1 2.6-2 3.9-2.8 1.3-.7 2.6-1.3 4-1.7 1.4-.4 3-.6 4.9-.6 3.9 0 6.7.7 8.5 2.2 1.8 1.4 3.5 3.7 5.2 6.8 1.9-1.8 3.6-3.2 5.1-4.4 1.5-1.2 3-2.1 4.3-2.8 1.3-.7 2.7-1.2 4-1.4 1.3-.2 2.6-.3 4-.3 4.9 0 8.6 1.4 11 4.2 2.4 2.8 3.6 6.6 3.6 11.6V207h-15.6v-58.1c0-1.9-.5-3.2-1.6-4.1-1.1-.9-2.4-1.3-4-1.3-1.7 0-3.3.5-4.9 1.4-1.6.9-3.2 2-5 3.3V207h-15.6z"/></g><g fill="#58595B"><path d="M81.4 118.3c-.3-3.9-1.1-7.1-2.2-9.7-1.1-2.6-2.4-4.7-4-6.2s-3.3-2.6-5.2-3.3c-1.9-.7-3.6-1-5.3-1-5.1 0-8.9 1.6-11.6 4.7-2.7 3.1-4 7.6-4 13.3 0 5.2 1.6 10 4.7 14.4s7 8.8 11.8 13.2c4.7 4.4 9.9 8.8 15.4 13.3 5.6 4.5 10.7 9.4 15.4 14.8 4.7 5.4 8.6 11.3 11.8 17.8 3.1 6.5 4.7 13.9 4.7 22.1 0 7.6-1.2 14.3-3.7 20.1-2.4 5.8-5.8 10.7-10.1 14.7s-9.5 7-15.7 9c-6.2 2-12.9 3-20.1 3-7.3 0-13.7-1.4-19.5-4-5.7-2.7-10.6-6.4-14.5-11-4-4.6-7-10-9.2-16.1-2.2-6.1-3.5-12.6-3.8-19.5l29.9-4.3c.7 9.3 2.7 16.2 6.1 20.7 3.4 4.6 7.6 6.8 12.7 6.8 5.4 0 9.8-1.4 13.2-4.3 3.4-2.9 5.1-7 5.1-12.4 0-6.1-1.6-11.5-4.7-16.2-3.1-4.7-7-9.3-11.8-13.7-4.7-4.4-9.9-8.8-15.4-13.2-5.6-4.4-10.7-9.2-15.4-14.4-4.7-5.2-8.6-11.1-11.8-17.7-3.1-6.6-4.7-14.3-4.7-23 0-14.7 4.2-25.9 12.6-33.8 8.4-7.8 20.4-11.8 35.9-11.8 6.4 0 12.1 1.1 17.2 3.3 5.1 2.2 9.4 5.3 13 9.2 3.6 4 6.6 8.6 8.9 14 2.3 5.4 3.8 11.3 4.4 17.7l-30.1 3.5zM121.4 117.6c0-6.4 1-12.5 2.9-18.2 1.9-5.7 4.9-10.7 8.9-14.9 4-4.2 8.9-7.5 14.9-10 6-2.4 13.1-3.7 21.4-3.7 8.3 0 15.4 1.2 21.4 3.7 6 2.4 11 5.8 14.9 10 4 4.2 6.9 9.2 8.9 14.9 1.9 5.7 2.9 11.8 2.9 18.2v94.1c0 6.4-1 12.5-2.9 18.2-1.9 5.7-4.9 10.7-8.9 14.9-4 4.2-8.9 7.6-14.9 10-6 2.4-13.1 3.7-21.4 3.7-8.3 0-15.4-1.2-21.4-3.7-6-2.4-11-5.8-14.9-10-4-4.2-6.9-9.2-8.9-14.9-1.9-5.7-2.9-11.8-2.9-18.2v-94.1zm31.3 93.3c0 6.9 1.2 12 3.5 15.3 2.4 3.3 6.7 4.9 13.2 4.9 6.4 0 10.8-1.6 13.2-4.9 2.4-3.3 3.5-8.4 3.5-15.3v-92.6c0-6.9-1.2-12-3.5-15.3-2.4-3.3-6.7-4.9-13.2-4.9-6.4 0-10.8 1.6-13.2 4.9-2.4 3.3-3.5 8.4-3.5 15.3v92.6zM232.7 117.6c0-6.4 1-12.5 2.9-18.2 1.9-5.7 4.9-10.7 8.9-14.9 4-4.2 8.9-7.5 14.9-10 6-2.4 13.1-3.7 21.4-3.7 8.3 0 15.4 1.2 21.4 3.7 6 2.4 11 5.8 14.9 10 4 4.2 6.9 9.2 8.9 14.9 1.9 5.7 2.9 11.8 2.9 18.2v94.1c0 6.4-1 12.5-2.9 18.2-1.9 5.7-4.9 10.7-8.9 14.9-4 4.2-8.9 7.6-14.9 10-6 2.4-13.1 3.7-21.4 3.7-8.3 0-15.4-1.2-21.4-3.7-6-2.4-11-5.8-14.9-10-4-4.2-6.9-9.2-8.9-14.9-1.9-5.7-2.9-11.8-2.9-18.2v-94.1zm31.4 93.3c0 6.9 1.2 12 3.5 15.3 2.4 3.3 6.7 4.9 13.2 4.9 6.4 0 10.8-1.6 13.2-4.9 2.4-3.3 3.5-8.4 3.5-15.3v-92.6c0-6.9-1.2-12-3.5-15.3-2.4-3.3-6.7-4.9-13.2-4.9-6.4 0-10.8 1.6-13.2 4.9-2.4 3.3-3.5 8.4-3.5 15.3v92.6z"/></g></svg>