<?xml version="1.0" encoding="utf-8"?>
<!-- Generator: Adobe Illustrator 15.1.0, SVG Export Plug-In . SVG Version: 6.00 Build 0)  -->
<!DOCTYPE svg PUBLIC "-//W3C//DTD SVG 1.1//EN" "http://www.w3.org/Graphics/SVG/1.1/DTD/svg11.dtd">
<svg version="1.1" id="Layer_1" xmlns="http://www.w3.org/2000/svg" xmlns:xlink="http://www.w3.org/1999/xlink" x="0px" y="0px"
	 width="300px" height="300px" viewBox="0 0 300 300" enable-background="new 0 0 300 300" xml:space="preserve">
<rect fill="#55ACEE" width="300" height="300"/>
<g id="g10_1_" transform="matrix(1.25,0,0,-1.25,0,47.5)">
	<g id="g12_1_">
		<g>
			<defs>
				<rect id="SVGID_1_" x="-232.021" y="5.423" width="74.163" height="74.163"/>
			</defs>
			<clipPath id="SVGID_2_">
				<use xlink:href="#SVGID_1_"  overflow="visible"/>
			</clipPath>
			<g id="g14_1_" clip-path="url(#SVGID_2_)">
				<g id="g20_1_" transform="translate(36,19)">
					<path id="path22_1_" fill="#FFCC4D" d="M-204.397,23.505c0-14.659-11.884-26.542-26.542-26.542
						c-14.658,0-26.543,11.883-26.543,26.542c0,14.657,11.885,26.542,26.543,26.542C-216.28,50.047-204.397,38.162-204.397,23.505"
						/>
				</g>
				<g id="g24_1_" transform="translate(15,20.5)">
					<path id="path26_1_" fill="#664500" d="M-216.185,24.345c0-3.019-1.747-5.464-3.903-5.464c-2.156,0-3.904,2.445-3.904,5.464
						s1.747,5.466,3.904,5.466C-217.932,29.811-216.185,27.364-216.185,24.345"/>
				</g>
				<g id="g28_1_" transform="translate(28,20.5)">
					<path id="path30_1_" fill="#664500" d="M-208.888,24.345c0-3.019-1.747-5.464-3.903-5.464c-2.155,0-3.902,2.445-3.902,5.464
						s1.747,5.466,3.902,5.466C-210.635,29.811-208.888,27.364-208.888,24.345"/>
				</g>
				<g id="g32_1_" transform="translate(13,9)">
					<path id="path34_1_" fill="#664500" d="M-217.308,17.891c3.123,7.807,20.298,7.807,20.298,4.684
						C-197.01,21.013-209.501,24.136-217.308,17.891"/>
				</g>
			</g>
		</g>
	</g>
</g>
<g id="g10" transform="matrix(1.25,0,0,-1.25,0,47.5)">
	<g id="g12">
		<g>
			<defs>
				<rect id="SVGID_3_" x="-179.008" y="-7.208" width="75.695" height="75.694"/>
			</defs>
			<clipPath id="SVGID_4_">
				<use xlink:href="#SVGID_3_"  overflow="visible"/>
			</clipPath>
			<g id="g14" clip-path="url(#SVGID_4_)">
				<g id="g20" transform="translate(36,19)">
					<path id="path22" fill="#FFCC4D" d="M-150.07,11.639c0-14.963-12.128-27.091-27.091-27.091
						c-14.962,0-27.091,12.128-27.091,27.091c0,14.962,12.129,27.091,27.091,27.091C-162.198,38.73-150.07,26.601-150.07,11.639"/>
				</g>
				<g id="g24" transform="translate(19,16)">
					<path id="path26" fill="#664500" d="M-160.161,9.858c-5.773,0-9.604,0.673-14.342,1.594c-1.082,0.209-3.188,0-3.188-3.188
						c0-6.373,7.323-14.342,17.529-14.342c10.205,0,17.53,7.969,17.53,14.342c0,3.188-2.106,3.398-3.188,3.188
						C-150.556,10.53-154.387,9.858-160.161,9.858"/>
				</g>
				<g id="g28" transform="translate(11,24)">
					<path id="path30" fill="#664500" d="M-164.91,14.606c0,0,0,3.188,3.188,3.188c3.187,0,3.187-3.188,3.187-3.188V11.42
						c0,0,0-3.187-3.187-3.187c-3.188,0-3.188,3.187-3.188,3.187V14.606z"/>
				</g>
				<g id="g32" transform="translate(23,24)">
					<path id="path34" fill="#664500" d="M-157.787,14.606c0,0,0,3.188,3.187,3.188c3.188,0,3.188-3.188,3.188-3.188V11.42
						c0,0,0-3.187-3.188-3.187c-3.187,0-3.187,3.187-3.187,3.187V14.606z"/>
				</g>
				<g id="g36" transform="translate(10,15)">
					<path id="path38" fill="#FFFFFF" d="M-165.503,9.264c0,0,4.78-1.594,14.342-1.594c9.561,0,14.342,1.594,14.342,1.594
						s-3.188-6.373-14.342-6.373C-162.316,2.891-165.503,9.264-165.503,9.264"/>
				</g>
			</g>
		</g>
	</g>
</g>
<g id="g10_2_" transform="matrix(1.25,0,0,-1.25,0,47.5)">
	<g id="g12_2_">
		<g>
			<defs>
				<rect id="SVGID_5_" x="-124.489" y="8.589" width="74.5" height="74.5"/>
			</defs>
			<clipPath id="SVGID_6_">
				<use xlink:href="#SVGID_5_"  overflow="visible"/>
			</clipPath>
			<g id="g14_2_" clip-path="url(#SVGID_6_)">
				<g id="g20_2_" transform="translate(36,19)">
					<path id="path22_2_" fill="#FDCB58" d="M-96.576,26.839c0-14.726-11.938-26.663-26.663-26.663
						c-14.724,0-26.663,11.938-26.663,26.663c0,14.724,11.939,26.663,26.663,26.663C-108.513,53.502-96.576,41.563-96.576,26.839"/>
				</g>
				<g id="g24_2_" transform="translate(26.4854,7.1211)">
					<path id="path26_2_" fill="#664500" d="M-101.984,20.087c-0.071,0.281-1.833,6.868-11.74,6.868
						c-9.909,0-11.67-6.587-11.74-6.868c-0.086-0.34,0.067-0.693,0.372-0.869c0.305-0.171,0.688-0.124,0.939,0.12
						c0.03,0.03,3.066,2.912,10.429,2.912c7.362,0,10.398-2.882,10.427-2.912c0.151-0.147,0.352-0.225,0.552-0.225
						c0.131,0,0.265,0.033,0.386,0.1C-102.052,19.389-101.898,19.745-101.984,20.087"/>
				</g>
				<g id="g28_2_" transform="translate(16.707,19.707)">
					<path id="path30_2_" fill="#664500" d="M-107.542,27.241c-5.105,5.105-13.31,5.166-13.656,5.166
						c-0.866,0-1.567-0.702-1.567-1.567c-0.002-0.864,0.699-1.569,1.565-1.57c0.046,0,3.02-0.034,6.248-1.155
						c-0.93-1.004-1.541-2.563-1.541-4.334c0-3.034,1.755-5.49,3.921-5.49c2.166,0,3.921,2.456,3.921,5.49
						c0,0.273-0.03,0.533-0.058,0.795c0.02,0,0.039-0.012,0.058-0.012c0.402,0,0.803,0.154,1.109,0.459
						C-106.93,25.637-106.93,26.627-107.542,27.241"/>
				</g>
				<g id="g32_2_" transform="translate(30,23)">
					<path id="path34_2_" fill="#664500" d="M-99.987,29.113c-0.346,0-8.549-0.06-13.656-5.166c-0.613-0.613-0.613-1.604,0-2.218
						c0.306-0.305,0.708-0.459,1.109-0.459c0.021,0,0.038,0.012,0.057,0.012c-0.025-0.262-0.057-0.523-0.057-0.795
						c0-3.034,1.755-5.49,3.922-5.49c2.166,0,3.921,2.456,3.921,5.49c0,1.77-0.611,3.33-1.541,4.334
						c3.228,1.121,6.202,1.155,6.248,1.155c0.865,0.002,1.566,0.706,1.564,1.57C-98.421,28.412-99.121,29.113-99.987,29.113"/>
				</g>
			</g>
		</g>
	</g>
</g>
<rect fill-rule="evenodd" clip-rule="evenodd" fill="#5CB85C" width="102.64" height="301"/>
<rect x="198.5" y="124.205" fill-rule="evenodd" clip-rule="evenodd" fill="#D9534F" width="101.5" height="176.795"/>
<rect x="101.936" y="67.5" fill-rule="evenodd" clip-rule="evenodd" fill="#428BCA" width="101.5" height="233.5"/>
<g>
	<path fill-rule="evenodd" clip-rule="evenodd" fill="#CEE5F4" d="M209.564,120.515c0.199,0.954,0.199,2.737,0,3.69
		C209.564,122.975,209.564,121.745,209.564,120.515z"/>
	<path fill-rule="evenodd" clip-rule="evenodd" fill="#80BBE4" d="M128.239,201.603c0-0.041,0-0.078,0-0.119
		c1.509,0,3.017,0,4.525,0c0,0.041,0,0.078,0,0.119C131.256,201.603,129.748,201.603,128.239,201.603z"/>
	<path fill-rule="evenodd" clip-rule="evenodd" fill="#ECF5FB" d="M161.341,100.034c0.349-0.447,0.743-0.845,1.191-1.19
		C162.185,99.29,161.787,99.688,161.341,100.034z"/>
	<path fill-rule="evenodd" clip-rule="evenodd" fill="#CEE5F4" d="M101.925,101.7c0.525,0.429,1.002,0.904,1.428,1.431
		C102.828,102.702,102.352,102.228,101.925,101.7z"/>
	<path fill-rule="evenodd" clip-rule="evenodd" fill="#ECF5FB" d="M108.712,168.38c0.764,0.667,1.479,1.381,2.143,2.144
		C110.09,169.86,109.376,169.146,108.712,168.38z"/>
	<path fill-rule="evenodd" clip-rule="evenodd" fill="#CEE5F4" d="M215.637,113.728c0.43-0.525,0.904-1.003,1.43-1.43
		C216.641,112.825,216.165,113.3,215.637,113.728z"/>
	<path fill-rule="evenodd" clip-rule="evenodd" fill="#A8D1ED" d="M185.038,180.17c0.506-0.606,1.062-1.161,1.667-1.669
		C186.199,179.109,185.643,179.662,185.038,180.17z"/>
	<path fill-rule="evenodd" clip-rule="evenodd" fill="#CEE5F4" d="M93.232,131.707c-0.273-0.281-0.043-1.068-0.119-1.548
		c0.134,0.013,0.186-0.174,0.239,0C93.078,130.44,93.31,131.229,93.232,131.707z"/>
	<path fill-rule="evenodd" clip-rule="evenodd" fill="#80BBE4" d="M161.341,100.034c0.446-0.347,0.844-0.744,1.191-1.19
		c0.04,0,0.08,0,0.119,0c-0.389,0.486-0.822,0.922-1.311,1.309C161.341,100.113,161.341,100.073,161.341,100.034z"/>
	<path fill-rule="evenodd" clip-rule="evenodd" fill="#ECF5FB" d="M212.066,105.394c0.467-0.566,0.981-1.083,1.548-1.549
		C213.146,104.411,212.632,104.927,212.066,105.394z"/>
	<path fill-rule="evenodd" clip-rule="evenodd" fill="#CEE5F4" d="M94.781,189.458c0.517-0.276,1.546-0.041,2.262-0.119
		C96.525,189.613,95.496,189.378,94.781,189.458z"/>
	<path fill-rule="evenodd" clip-rule="evenodd" fill="#A8D1ED" d="M126.691,201.483c0.517,0,1.032,0,1.548,0
		c0,0.041,0,0.078,0,0.119c-0.516,0-1.031,0-1.548,0C126.691,201.562,126.691,201.524,126.691,201.483z"/>
	<path fill-rule="evenodd" clip-rule="evenodd" fill="#A8D1ED" d="M132.764,201.483c0.555,0,1.112,0,1.668,0
		c0,0.041,0,0.078,0,0.119c-0.556,0-1.113,0-1.668,0C132.764,201.562,132.764,201.524,132.764,201.483z"/>
	<path fill-rule="evenodd" clip-rule="evenodd" fill="#A8D1ED" d="M93.471,108.964c0,0.993,0,1.984,0,2.979
		C93.272,111.225,93.272,109.681,93.471,108.964z"/>
	<path fill-rule="evenodd" clip-rule="evenodd" fill="#CEE5F4" d="M106.688,158.617c1.032,0,2.064,0,3.096,0
		C109.027,158.816,107.443,158.816,106.688,158.617z"/>
	<path fill-rule="evenodd" clip-rule="evenodd" fill="#CEE5F4" d="M91.804,189.339c0.715,0.078,1.744-0.157,2.262,0.119
		C93.351,189.378,92.321,189.613,91.804,189.339z"/>
	<path fill-rule="evenodd" clip-rule="evenodd" fill="#E7E7E7" d="M179.797,91.342c1.232,0,2.463,0,3.691,0
		c6.025,0.505,11.262,2.762,15.121,5.716c0.976,0.746,2.729,2.91,3.693,2.977c1.406,0.095,3.459-0.798,4.764-1.19
		c4.673-1.406,8.812-3.353,12.502-5.239c-1.309,4.091-3.494,7.301-5.954,10.24c-0.566,0.466-1.081,0.982-1.548,1.549
		c-1.053,0.787-2.36,1.879-3.453,2.618c-0.325,0.22-0.949,0.464-0.835,0.716c5.907-0.726,10.935-2.327,15.601-4.287
		c-1.892,2.832-4.05,5.397-6.312,7.857c-0.525,0.427-1,0.904-1.43,1.43c-0.84,0.857-1.864,1.58-3.096,2.62
		c-0.742,0.626-2.752,1.787-2.977,2.737c-0.119,0.516,0.092,0.964,0,1.43c0,1.23,0,2.46,0,3.69
		c-1.202,24.518-10.525,40.912-22.859,54.296c-0.605,0.508-1.161,1.062-1.667,1.669c-12.335,11.637-27.844,20.102-50.606,21.313
		c-0.556,0-1.113,0-1.668,0c-1.508,0-3.016,0-4.525,0c-0.516,0-1.031,0-1.548,0c-16.08-0.865-28.709-5.821-38.698-12.383
		c1.248,0.101,2.4,0.299,3.811,0.238c0.517,0.274,1.546,0.039,2.262,0.119c0.239,0,0.477,0,0.715,0
		c0.715-0.08,1.745,0.155,2.262-0.119c12.88-0.528,22.685-5.108,30.364-10.717c0.493-0.359,1.453-0.657,1.19-1.07
		c-7.904-0.354-13.194-3.318-17.742-7.028c-0.665-0.763-1.379-1.477-2.143-2.144c-2.286-2.873-4.715-6.237-5.597-10.118
		c1.156,0.151,2.214,0.405,3.572,0.355c0.755,0.199,2.34,0.199,3.096,0c2.121-0.064,4.066-0.301,5.596-0.952
		c-12.771-3.266-20.681-11.39-22.147-25.958c0.077-0.479-0.155-1.267,0.12-1.548c3.334,1.904,7.333,3.146,12.263,3.453
		c-6.112-4.684-11.463-11.161-12.145-21.67c0-0.994,0-1.985,0-2.979c0.287-5.11,1.756-9.038,3.691-12.503
		c1.586,1.749,3.067,3.603,4.764,5.239c0.426,0.527,0.902,1.002,1.428,1.431c12.605,11.924,28.192,20.864,51.201,22.383
		c-2.336-10.523,1.555-20.118,6.786-25.361c0.488-0.387,0.922-0.822,1.311-1.309C166.914,94.889,172.308,92.067,179.797,91.342z"/>
</g>
</svg>
